STARTFONT 2.1
FONT -FontForge-Good Times Rg-Book-R-Normal--32-310-75-75-P-237-ISO10646-1
SIZE 31 75 75
FONTBOUNDINGBOX 64 38 -9 -7
COMMENT "Generated by fontforge, http://fontforge.sourceforge.net"
COMMENT "(c) 1998-2012 Typodermic Fonts Inc. See attached license agreement. If agreement is missing visit typodermicfonts.com for more info. Languages by Chikako Larabie"
STARTPROPERTIES 39
FOUNDRY "FontForge"
FAMILY_NAME "Good Times Rg"
WEIGHT_NAME "Book"
SLANT "R"
SETWIDTH_NAME "Normal"
ADD_STYLE_NAME ""
PIXEL_SIZE 32
POINT_SIZE 310
RESOLUTION_X 75
RESOLUTION_Y 75
SPACING "P"
AVERAGE_WIDTH 237
CHARSET_REGISTRY "ISO10646"
CHARSET_ENCODING "1"
FONTNAME_REGISTRY ""
CHARSET_COLLECTIONS "ISO8859-2 ISO8859-9 ISO8859-4 ISO10646-1"
FONT_NAME "GoodTimesRg-Regular"
FACE_NAME "GoodTimesRg-Regular"
COPYRIGHT "(c) 1998-2012 Typodermic Fonts Inc. See attached license agreement. If agreement is missing visit typodermicfonts.com for more info. Languages by Chikako Larabie"
FONT_VERSION "4.001"
FONT_ASCENT 26
FONT_DESCENT 6
UNDERLINE_POSITION -5
UNDERLINE_THICKNESS 1
X_HEIGHT 22
CAP_HEIGHT 22
RAW_ASCENT 799
RAW_DESCENT 201
NORM_SPACE 9
RELATIVE_WEIGHT 40
RELATIVE_SETWIDTH 50
SUPERSCRIPT_X 0
SUPERSCRIPT_Y 9
SUPERSCRIPT_SIZE 9
SUBSCRIPT_X 0
SUBSCRIPT_Y 0
SUBSCRIPT_SIZE 9
AVG_LOWERCASE_WIDTH 273
AVG_UPPERCASE_WIDTH 272
ENDPROPERTIES
CHARS 304
STARTCHAR space
ENCODING 32
SWIDTH 294 0
DWIDTH 9 0
BBX 1 1 0 0
BITMAP
00
ENDCHAR
STARTCHAR exclam
ENCODING 33
SWIDTH 298 0
DWIDTH 10 0
BBX 4 23 3 0
BITMAP
F0
F0
F0
F0
F0
F0
F0
F0
F0
F0
F0
F0
F0
F0
F0
F0
00
00
00
E0
F0
F0
E0
ENDCHAR
STARTCHAR quotedbl
ENCODING 34
SWIDTH 452 0
DWIDTH 14 0
BBX 10 8 2 15
BITMAP
F3C0
F3C0
F3C0
F3C0
71C0
71C0
71C0
71C0
ENDCHAR
STARTCHAR numbersign
ENCODING 35
SWIDTH 697 0
DWIDTH 22 0
BBX 20 23 1 0
BITMAP
00E0E0
00E0C0
00E1C0
01C1C0
01C1C0
01C380
1FFFF0
1FFFF0
1FFFF0
030700
070700
070600
060E00
0E0E00
FFFFC0
FFFFC0
FFFFC0
1C1C00
1C3800
383800
383800
387000
707000
ENDCHAR
STARTCHAR dollar
ENCODING 36
SWIDTH 744 0
DWIDTH 24 0
BBX 20 23 2 0
BITMAP
006000
006000
1FFFE0
7FFFE0
7FFFE0
F06000
E06000
E06000
E06000
F06000
7FFF80
3FFFE0
0FFFE0
0060F0
006070
006070
006070
0060F0
FFFFE0
FFFFC0
FFFF80
006000
006000
ENDCHAR
STARTCHAR percent
ENCODING 37
SWIDTH 965 0
DWIDTH 31 0
BBX 29 27 1 -2
BITMAP
000001C0
0F800380
3FC00300
70E00600
60300E00
E0301C00
C0303800
C0303000
60307000
6030E000
70E1C000
3FC38000
0F830000
00070F80
000E3FE0
001C7070
00386030
00306030
0070E038
00E0E038
01C06030
03806030
03003060
07003FC0
0E000F80
1C000000
38000000
ENDCHAR
STARTCHAR ampersand
ENCODING 38
SWIDTH 759 0
DWIDTH 24 0
BBX 21 23 2 0
BITMAP
0FF000
3FF000
7FF000
7FF000
F80000
F00000
F00000
F00000
F00000
780000
3FFFF0
3FFFF0
7FFFF0
F80780
F00780
F00780
F00780
F00780
F80780
FFFFF8
7FFFF8
3FFFF8
0FFFF8
ENDCHAR
STARTCHAR quotesingle
ENCODING 39
SWIDTH 255 0
DWIDTH 8 0
BBX 4 8 2 15
BITMAP
F0
F0
F0
F0
F0
70
70
60
ENDCHAR
STARTCHAR parenleft
ENCODING 40
SWIDTH 356 0
DWIDTH 11 0
BBX 6 29 3 -3
BITMAP
1C
1C
38
38
38
70
70
70
60
E0
E0
E0
E0
E0
E0
E0
E0
E0
E0
E0
60
70
70
70
30
38
38
1C
1C
ENDCHAR
STARTCHAR parenright
ENCODING 41
SWIDTH 355 0
DWIDTH 11 0
BBX 6 29 2 -3
BITMAP
E0
70
70
70
38
38
38
1C
1C
1C
1C
0C
0C
0C
0C
0C
0C
0C
1C
1C
1C
1C
18
38
38
70
70
70
E0
ENDCHAR
STARTCHAR asterisk
ENCODING 42
SWIDTH 469 0
DWIDTH 15 0
BBX 11 10 2 13
BITMAP
0400
0400
0400
E4E0
FFE0
1F00
1F00
1B00
3180
3180
ENDCHAR
STARTCHAR plus
ENCODING 43
SWIDTH 690 0
DWIDTH 22 0
BBX 18 18 2 3
BITMAP
00C000
00C000
00C000
00C000
00C000
00C000
00C000
00C000
FFFFC0
FFFFC0
FFFFC0
00C000
00C000
00C000
00C000
00C000
00C000
00C000
ENDCHAR
STARTCHAR comma
ENCODING 44
SWIDTH 259 0
DWIDTH 8 0
BBX 4 8 2 -4
BITMAP
F0
F0
F0
F0
E0
E0
E0
E0
ENDCHAR
STARTCHAR hyphen
ENCODING 45
SWIDTH 296 0
DWIDTH 9 0
BBX 8 3 1 10
BITMAP
FF
FF
FF
ENDCHAR
STARTCHAR period
ENCODING 46
SWIDTH 262 0
DWIDTH 8 0
BBX 4 4 2 0
BITMAP
70
F0
F0
70
ENDCHAR
STARTCHAR slash
ENCODING 47
SWIDTH 444 0
DWIDTH 14 0
BBX 14 23 0 0
BITMAP
001C
0018
0038
0030
0070
0060
00E0
00C0
01C0
0180
0380
0380
0700
0700
0E00
0E00
1C00
1C00
3800
3800
7000
7000
E000
ENDCHAR
STARTCHAR zero
ENCODING 48
SWIDTH 838 0
DWIDTH 27 0
BBX 24 23 1 0
BITMAP
007F00
03FFE0
07FFF0
1FFFF8
1F81FC
3E007E
7C001E
78001F
78000F
F8000F
F0000F
F0000F
F0000F
78000F
78000F
78001F
3C001E
3E007E
1F81FC
0FFFF8
07FFF0
03FFC0
007F00
ENDCHAR
STARTCHAR one
ENCODING 49
SWIDTH 385 0
DWIDTH 12 0
BBX 9 23 1 0
BITMAP
F800
FE00
FF00
FF00
0F80
0780
0780
0780
0780
0780
0780
0780
0780
0780
0780
0780
0780
0780
0780
0780
0780
0780
0780
ENDCHAR
STARTCHAR two
ENCODING 50
SWIDTH 825 0
DWIDTH 26 0
BBX 23 23 2 0
BITMAP
FFFFE0
FFFFF0
FFFFF8
FFFFFC
00007C
00003E
00001E
00001E
00003C
00007C
0FFFF8
3FFFF0
7FFFE0
780000
F00000
F00000
F00000
F00000
F00000
FFFFFC
FFFFFC
FFFFFC
FFFFFC
ENDCHAR
STARTCHAR three
ENCODING 51
SWIDTH 827 0
DWIDTH 26 0
BBX 24 23 1 0
BITMAP
7FFFE0
7FFFF8
7FFFFC
7FFFFE
00003E
00001E
00001E
00001E
00001E
00003E
03FFF8
03FFF8
03FFFE
00003E
00001F
00000F
00000F
00001F
00003F
FFFFFE
FFFFFC
FFFFF8
FFFFF0
ENDCHAR
STARTCHAR four
ENCODING 52
SWIDTH 845 0
DWIDTH 27 0
BBX 24 23 2 0
BITMAP
F00078
F00078
F00078
F00078
F00078
F00078
F00078
F00078
F00078
F00078
F00078
F00078
F80078
FFFFFF
7FFFFF
3FFFFF
0FFFFF
000078
000078
000078
000078
000078
000078
ENDCHAR
STARTCHAR five
ENCODING 53
SWIDTH 885 0
DWIDTH 28 0
BBX 25 23 2 0
BITMAP
FFFFFF00
FFFFFF00
FFFFFF00
FFFFFF00
F0000000
F0000000
F0000000
F0000000
F0000000
F0000000
FFFFF800
FFFFFE00
FFFFFF00
00000F00
00000700
00000780
00000780
00000F80
00001F00
FFFFFF00
FFFFFE00
FFFFFC00
FFFFF800
ENDCHAR
STARTCHAR six
ENCODING 54
SWIDTH 872 0
DWIDTH 28 0
BBX 25 23 1 0
BITMAP
01FFFF00
07FFFF00
1FFFFF00
3FFFFF00
3F000000
7C000000
78000000
78000000
78000000
FFFFF800
FFFFFE00
FFFFFF00
FFFFFF80
F8000F80
78000780
78000780
7C000780
7C000780
3F000F80
1FFFFF00
0FFFFF00
07FFFE00
01FFF800
ENDCHAR
STARTCHAR seven
ENCODING 55
SWIDTH 756 0
DWIDTH 24 0
BBX 23 23 1 0
BITMAP
FFFFFC
FFFFFE
FFFFFC
FFFFFC
0000F8
0001F0
0003F0
0003E0
0007C0
000F80
001F00
003E00
007E00
007C00
00F800
01F000
03E000
07C000
0FC000
0F8000
1F0000
3E0000
7C0000
ENDCHAR
STARTCHAR eight
ENCODING 56
SWIDTH 898 0
DWIDTH 29 0
BBX 25 23 2 0
BITMAP
0FFFF800
3FFFFE00
7FFFFF00
7FFFFF00
FC001F00
F0000F80
F0000780
F0000780
F0000F00
78001F00
3FFFFE00
3FFFFC00
7FFFFF00
F8000F00
F0000780
F0000780
F0000780
F0000780
FC001F80
FFFFFF00
7FFFFF00
3FFFFE00
0FFFF800
ENDCHAR
STARTCHAR nine
ENCODING 57
SWIDTH 861 0
DWIDTH 28 0
BBX 25 23 1 0
BITMAP
0FFFC000
1FFFF800
3FFFFC00
7FFFFE00
7C007F00
F8001F00
F8000F00
F0000F80
F8000780
78000780
7C000780
7FFFFF80
3FFFFF80
0FFFFF80
00000780
00000780
00000F80
00001F00
00007F00
1FFFFE00
1FFFFC00
1FFFF800
1FFFC000
ENDCHAR
STARTCHAR colon
ENCODING 58
SWIDTH 262 0
DWIDTH 8 0
BBX 4 15 2 0
BITMAP
70
F0
F0
70
00
00
00
00
00
00
00
70
F0
F0
70
ENDCHAR
STARTCHAR semicolon
ENCODING 59
SWIDTH 262 0
DWIDTH 8 0
BBX 4 18 2 -4
BITMAP
70
F0
F0
70
00
00
00
00
00
00
F0
F0
F0
F0
E0
E0
E0
E0
ENDCHAR
STARTCHAR less
ENCODING 60
SWIDTH 690 0
DWIDTH 22 0
BBX 18 17 2 3
BITMAP
0000C0
0003C0
001FC0
007F00
01F800
0FE000
3F0000
FC0000
F00000
7E0000
1F8000
07F000
00FC00
003F80
000FC0
0001C0
000040
ENDCHAR
STARTCHAR equal
ENCODING 61
SWIDTH 690 0
DWIDTH 22 0
BBX 18 11 2 6
BITMAP
FFFFC0
FFFFC0
FFFFC0
000000
000000
000000
000000
000000
FFFFC0
FFFFC0
FFFFC0
ENDCHAR
STARTCHAR greater
ENCODING 62
SWIDTH 690 0
DWIDTH 22 0
BBX 18 17 2 3
BITMAP
C00000
F00000
FE0000
3F8000
07E000
01FC00
003F00
0007C0
0003C0
001F80
007E00
03F800
0FC000
7F0000
FC0000
E00000
800000
ENDCHAR
STARTCHAR question
ENCODING 63
SWIDTH 776 0
DWIDTH 25 0
BBX 23 23 1 0
BITMAP
FFFFE0
FFFFF8
FFFFFC
FFFFFC
00003E
00003E
00001E
00001E
00003E
00003C
07FFFC
0FFFF8
1FFFE0
1E0000
1C0000
1C0000
000000
000000
000000
1C0000
3E0000
3E0000
1C0000
ENDCHAR
STARTCHAR at
ENCODING 64
SWIDTH 833 0
DWIDTH 27 0
BBX 24 23 1 0
BITMAP
007FFF
03FFFF
07FFFF
0F8007
1E0007
3C0007
783FC7
70FFC7
70E1C7
71C1C7
E1C1C7
E1C1C7
E1C1C7
F1E1C7
70FFFF
70FFFF
783FFF
3C0000
3E0000
1F8000
0FFFFF
03FFFF
00FFFF
ENDCHAR
STARTCHAR A
ENCODING 65
SWIDTH 989 0
DWIDTH 32 0
BBX 31 23 0 0
BITMAP
00038000
0003C000
0007E000
000FE000
000FF000
001FF000
001EF800
003E7C00
007C7C00
00783E00
00F81E00
00F01F00
01F00F80
03E00780
03C7FFC0
07C7FFE0
0F8FFFE0
0F0001F0
1F0000F0
1E0000F8
3E00007C
7C00007C
F800003E
ENDCHAR
STARTCHAR B
ENCODING 66
SWIDTH 891 0
DWIDTH 29 0
BBX 25 23 2 0
BITMAP
FFFFF000
FFFFFC00
FFFFFE00
FFFFFF00
F0001F00
F0000F80
F0000F80
F0000F00
F0000F00
F0001F00
F1FFFE00
F1FFFC00
F1FFFF00
F0000F00
F0000F80
F0000780
F0000780
F0000F80
F0001F80
FFFFFF00
FFFFFF00
FFFFFE00
FFFFF800
ENDCHAR
STARTCHAR C
ENCODING 67
SWIDTH 829 0
DWIDTH 27 0
BBX 24 23 1 0
BITMAP
00FFFF
03FFFF
0FFFFF
1FFFFF
3F8000
3E0000
7C0000
780000
780000
F80000
F00000
F00000
F00000
780000
780000
780000
7C0000
3E0000
1F8000
1FFFFF
0FFFFF
03FFFF
00FFFF
ENDCHAR
STARTCHAR D
ENCODING 68
SWIDTH 879 0
DWIDTH 28 0
BBX 25 23 2 0
BITMAP
FFFF8000
FFFFE000
FFFFF800
FFFFFC00
F000FE00
F0003E00
F0001F00
F0000F00
F0000F80
F0000780
F0000780
F0000780
F0000780
F0000F80
F0000F00
F0000F00
F0001F00
F0003E00
F000FE00
FFFFFC00
FFFFF800
FFFFE000
FFFF8000
ENDCHAR
STARTCHAR E
ENCODING 69
SWIDTH 759 0
DWIDTH 24 0
BBX 21 23 2 0
BITMAP
FFFFF8
FFFFF8
FFFFF8
FFFFF8
F00000
F00000
F00000
F00000
F00000
F00000
F1FFF0
F1FFF0
F1FFF0
F00000
F00000
F00000
F00000
F00000
F00000
FFFFF8
FFFFF8
FFFFF8
FFFFF8
ENDCHAR
STARTCHAR F
ENCODING 70
SWIDTH 705 0
DWIDTH 23 0
BBX 20 23 2 0
BITMAP
FFFFF0
FFFFF0
FFFFF0
FFFFF0
F00000
F00000
F00000
F00000
F00000
F00000
F1FFE0
F1FFE0
F1FFE0
F1FFE0
F00000
F00000
F00000
F00000
F00000
F00000
F00000
F00000
F00000
ENDCHAR
STARTCHAR G
ENCODING 71
SWIDTH 888 0
DWIDTH 28 0
BBX 26 23 1 0
BITMAP
00FFFF00
03FFFF00
0FFFFF00
1FFFFF00
3F800000
3E000000
7C000000
78000000
78000000
F8000000
F01FFFC0
F01FFFC0
F01FFFC0
780003C0
780003C0
780003C0
7C0003C0
3E0003C0
1F8003C0
1FFFFFC0
0FFFFFC0
03FFFFC0
00FFFFC0
ENDCHAR
STARTCHAR H
ENCODING 72
SWIDTH 838 0
DWIDTH 27 0
BBX 23 23 2 0
BITMAP
F0001E
F0001E
F0001E
F0001E
F0001E
F0001E
F0001E
F0001E
F0001E
F1FFFE
F1FFFE
F1FFFE
F1FFFE
F0001E
F0001E
F0001E
F0001E
F0001E
F0001E
F0001E
F0001E
F0001E
F0001E
ENDCHAR
STARTCHAR I
ENCODING 73
SWIDTH 267 0
DWIDTH 9 0
BBX 4 23 2 0
BITMAP
F0
F0
F0
F0
F0
F0
F0
F0
F0
F0
F0
F0
F0
F0
F0
F0
F0
F0
F0
F0
F0
F0
F0
ENDCHAR
STARTCHAR J
ENCODING 74
SWIDTH 708 0
DWIDTH 23 0
BBX 20 23 1 0
BITMAP
0000F0
0000F0
0000F0
0000F0
0000F0
0000F0
0000F0
0000F0
0000F0
0000F0
0000F0
0000F0
0000F0
0000F0
0000F0
0001F0
0001E0
0003E0
000FE0
FFFFC0
FFFF80
FFFF00
FFF800
ENDCHAR
STARTCHAR K
ENCODING 75
SWIDTH 875 0
DWIDTH 28 0
BBX 25 23 2 0
BITMAP
F0003F80
F0007E00
F001FC00
F003F000
F007E000
F01FC000
F03F0000
F07E0000
F1FC0000
F3F00000
F7E00000
F7C00000
F3E00000
F1F80000
F0FC0000
F03E0000
F01F8000
F00FC000
F007E000
F001F800
F000FC00
F0007E00
F0001F80
ENDCHAR
STARTCHAR L
ENCODING 76
SWIDTH 707 0
DWIDTH 23 0
BBX 20 23 2 0
BITMAP
F00000
F00000
F00000
F00000
F00000
F00000
F00000
F00000
F00000
F00000
F00000
F00000
F00000
F00000
F00000
F00000
F00000
F00000
F00000
FFFFF0
FFFFF0
FFFFF0
FFFFF0
ENDCHAR
STARTCHAR M
ENCODING 77
SWIDTH 1115 0
DWIDTH 36 0
BBX 34 23 1 0
BITMAP
0380006000
03C000F000
07C000F000
07E001F800
07E001F800
07F003F800
0FF003F800
0FF807BC00
0F7807BC00
0F780F3C00
1E3C0F3E00
1E3C0F1E00
1E1E1E1E00
3C1E1E1E00
3C0F3C0F00
3C0F3C0F00
3C0FF80F00
7807F80F00
7807F00780
7803F00780
F003E00780
F001E003C0
F001C003C0
ENDCHAR
STARTCHAR N
ENCODING 78
SWIDTH 873 0
DWIDTH 28 0
BBX 24 23 2 0
BITMAP
60000F
F0000F
F8000F
FE000F
FF000F
FF800F
FFC00F
F7E00F
F3F00F
F1F80F
F0FC0F
F07E0F
F03F0F
F01F8F
F00FCF
F007EF
F003FF
F001FF
F000FF
F0007F
F0003F
F0001F
F00006
ENDCHAR
STARTCHAR O
ENCODING 79
SWIDTH 968 0
DWIDTH 31 0
BBX 29 23 1 0
BITMAP
00FFF800
03FFFE00
0FFFFF80
1FFFFFC0
3F800FE0
3E0003E0
7C0001F0
780000F0
780000F0
F80000F8
F0000078
F0000078
F0000078
780000F8
780000F0
780000F0
7C0001F0
3E0003E0
1F800FC0
1FFFFFC0
0FFFFF80
03FFFE00
00FFF800
ENDCHAR
STARTCHAR P
ENCODING 80
SWIDTH 867 0
DWIDTH 28 0
BBX 25 23 2 0
BITMAP
FFFFF000
FFFFFC00
FFFFFE00
FFFFFF00
F0001F00
F0000F00
F0000780
F0000780
F0000780
F0000780
F0000F80
F0000F00
F0001F00
F1FFFF00
F1FFFE00
F1FFFC00
F1FFF000
F0000000
F0000000
F0000000
F0000000
F0000000
F0000000
ENDCHAR
STARTCHAR Q
ENCODING 81
SWIDTH 968 0
DWIDTH 31 0
BBX 30 23 1 0
BITMAP
00FFF800
03FFFE00
0FFFFF80
1FFFFFC0
3F800FE0
3E0003E0
7C0001F0
780000F0
780000F0
F80000F8
F0000078
F0000078
F0000078
780400F8
7803E0F0
7801F0F0
7C00FDF0
3E003FE0
1F801FC0
1FFFFFC0
0FFFFFE0
03FFFFF0
00FFF8FC
ENDCHAR
STARTCHAR R
ENCODING 82
SWIDTH 921 0
DWIDTH 29 0
BBX 27 23 2 0
BITMAP
FFFFF000
FFFFFC00
FFFFFE00
FFFFFF00
F0001F00
F0000F80
F0000780
F0000780
F0000780
F0000780
F0000780
F0000F80
F0001F00
F1FFFF00
F1FFFE00
F1FFFC00
F1FFF800
F000FC00
F0007E00
F0003F00
F0001F80
F0000FC0
F00007E0
ENDCHAR
STARTCHAR S
ENCODING 83
SWIDTH 880 0
DWIDTH 28 0
BBX 25 23 2 0
BITMAP
0FFFFF00
3FFFFF00
7FFFFF00
FFFFFF00
F8000000
F0000000
F0000000
F0000000
F0000000
F8000000
7FFFF800
3FFFFE00
0FFFFF00
00000F00
00000700
00000780
00000780
00000F80
00001F00
FFFFFF00
FFFFFE00
FFFFFC00
FFFFF800
ENDCHAR
STARTCHAR T
ENCODING 84
SWIDTH 720 0
DWIDTH 23 0
BBX 21 23 1 0
BITMAP
FFFFF8
FFFFF8
FFFFF8
FFFFF8
00F800
00F800
00F800
00F800
00F800
00F800
00F800
00F800
00F800
00F800
00F800
00F800
00F800
00F800
00F800
00F800
00F800
00F800
00F800
ENDCHAR
STARTCHAR U
ENCODING 85
SWIDTH 889 0
DWIDTH 28 0
BBX 25 23 2 0
BITMAP
F0000780
F0000780
F0000780
F0000780
F0000780
F0000780
F0000780
F0000780
F0000780
F0000780
F0000780
F0000780
F0000780
F0000780
F0000780
F0000F80
F8000F00
FC001F00
7F007E00
3FFFFE00
1FFFFC00
0FFFF000
01FFC000
ENDCHAR
STARTCHAR V
ENCODING 86
SWIDTH 989 0
DWIDTH 32 0
BBX 31 23 0 0
BITMAP
FC00003E
7C00003C
3E00007C
1F0000F8
1F0000F0
0F8001F0
0F8001E0
07C003E0
03E007C0
03E00780
01F00F80
00F00F00
00F81E00
007C3E00
007C3C00
003E7C00
001E7800
001FF000
000FF000
000FE000
0007E000
0003C000
00038000
ENDCHAR
STARTCHAR W
ENCODING 87
SWIDTH 1268 0
DWIDTH 41 0
BBX 40 23 0 0
BITMAP
FC0F80001F
7C07C0001E
3E03C0003E
3E03E0003C
1F01E0007C
1F01F00078
0F80F000F8
0780F801F0
07C07801E0
03C07C03E0
03E03E03C0
01F03E07C0
01F03F0780
00F87F0F80
00F8FF8F00
007CFF9F00
003DF7DE00
003FE3FC00
001FC3FC00
001FC1F800
000F81F800
000F80F000
0007006000
ENDCHAR
STARTCHAR X
ENCODING 88
SWIDTH 1000 0
DWIDTH 32 0
BBX 30 23 1 0
BITMAP
7E0001F8
3F0003F0
1F8007E0
0FC00F80
07E01F00
03F03E00
01F87C00
00FCF800
007FF000
003FE000
001FC000
000FC000
001FE000
003FF000
007DF800
00F8FC00
01F03E00
03E01F00
0FC00F80
1F8007C0
3F0003E0
7E0001F0
FC0000FC
ENDCHAR
STARTCHAR Y
ENCODING 89
SWIDTH 926 0
DWIDTH 30 0
BBX 29 23 0 0
BITMAP
FC0000F8
3E0001F0
1F0003E0
1F8007C0
0FC00F80
07E01F00
03E01F00
01F03E00
00F87C00
007CF800
007FF000
003FE000
001FC000
000FC000
00078000
00078000
00078000
00078000
00078000
00078000
00078000
00078000
00078000
ENDCHAR
STARTCHAR Z
ENCODING 90
SWIDTH 802 0
DWIDTH 26 0
BBX 23 23 1 0
BITMAP
7FFFFE
7FFFFE
7FFFFE
7FFFFE
0000FC
0001F8
0003F0
0007E0
000FC0
001F80
003F00
007E00
00FC00
01F000
03E000
07C000
0F8000
1F0000
3E0000
7FFFFE
FFFFFE
FFFFFE
7FFFFE
ENDCHAR
STARTCHAR bracketleft
ENCODING 91
SWIDTH 333 0
DWIDTH 11 0
BBX 6 29 3 -3
BITMAP
FC
FC
FC
E0
E0
E0
E0
E0
E0
E0
E0
E0
E0
E0
E0
E0
E0
E0
E0
E0
E0
E0
E0
E0
E0
E0
FC
FC
FC
ENDCHAR
STARTCHAR backslash
ENCODING 92
SWIDTH 445 0
DWIDTH 14 0
BBX 14 23 0 0
BITMAP
E000
7000
7000
3800
3800
1C00
1C00
0E00
0E00
0700
0700
0300
0380
0180
01C0
00C0
00E0
0060
0070
0070
0038
0038
001C
ENDCHAR
STARTCHAR bracketright
ENCODING 93
SWIDTH 333 0
DWIDTH 11 0
BBX 5 29 2 -3
BITMAP
F8
F8
F8
18
18
18
18
18
18
18
18
18
18
18
18
18
18
18
18
18
18
18
18
18
18
18
F8
F8
F8
ENDCHAR
STARTCHAR asciicircum
ENCODING 94
SWIDTH 559 0
DWIDTH 18 0
BBX 14 14 2 9
BITMAP
0300
0780
0780
0FC0
0FC0
0CC0
1CE0
1860
3870
3870
7030
7038
6018
E01C
ENDCHAR
STARTCHAR underscore
ENCODING 95
SWIDTH 668 0
DWIDTH 21 0
BBX 22 2 0 -5
BITMAP
FFFFFC
FFFFFC
ENDCHAR
STARTCHAR grave
ENCODING 96
SWIDTH 362 0
DWIDTH 12 0
BBX 8 5 2 24
BITMAP
80
F0
FE
1F
01
ENDCHAR
STARTCHAR a
ENCODING 97
SWIDTH 989 0
DWIDTH 32 0
BBX 31 23 0 0
BITMAP
00038000
0003C000
0007E000
000FE000
000FF000
001FF000
001EF800
003E7C00
007C7C00
00783E00
00F81E00
00F01F00
01F00F80
03E00780
03C7FFC0
07C7FFE0
0F8FFFE0
0F0001F0
1F0000F0
1E0000F8
3E00007C
7C00007C
F800003E
ENDCHAR
STARTCHAR b
ENCODING 98
SWIDTH 891 0
DWIDTH 29 0
BBX 25 23 2 0
BITMAP
FFFFF000
FFFFFC00
FFFFFE00
FFFFFF00
F0001F00
F0000F80
F0000F80
F0000F00
F0000F00
F0001F00
F1FFFE00
F1FFFC00
F1FFFF00
F0000F00
F0000F80
F0000780
F0000780
F0000F80
F0001F80
FFFFFF00
FFFFFF00
FFFFFE00
FFFFF800
ENDCHAR
STARTCHAR c
ENCODING 99
SWIDTH 829 0
DWIDTH 27 0
BBX 24 23 1 0
BITMAP
00FFFF
03FFFF
0FFFFF
1FFFFF
3F8000
3E0000
7C0000
780000
780000
F80000
F00000
F00000
F00000
780000
780000
780000
7C0000
3E0000
1F8000
1FFFFF
0FFFFF
03FFFF
00FFFF
ENDCHAR
STARTCHAR d
ENCODING 100
SWIDTH 879 0
DWIDTH 28 0
BBX 25 23 2 0
BITMAP
FFFF8000
FFFFE000
FFFFF800
FFFFFC00
F000FE00
F0003E00
F0001F00
F0000F00
F0000F80
F0000780
F0000780
F0000780
F0000780
F0000F80
F0000F00
F0000F00
F0001F00
F0003E00
F000FE00
FFFFFC00
FFFFF800
FFFFE000
FFFF8000
ENDCHAR
STARTCHAR e
ENCODING 101
SWIDTH 759 0
DWIDTH 24 0
BBX 21 23 2 0
BITMAP
FFFFF8
FFFFF8
FFFFF8
FFFFF8
F00000
F00000
F00000
F00000
F00000
F00000
F1FFF0
F1FFF0
F1FFF0
F00000
F00000
F00000
F00000
F00000
F00000
FFFFF8
FFFFF8
FFFFF8
FFFFF8
ENDCHAR
STARTCHAR f
ENCODING 102
SWIDTH 705 0
DWIDTH 23 0
BBX 20 23 2 0
BITMAP
FFFFF0
FFFFF0
FFFFF0
FFFFF0
F00000
F00000
F00000
F00000
F00000
F00000
F1FFE0
F1FFE0
F1FFE0
F1FFE0
F00000
F00000
F00000
F00000
F00000
F00000
F00000
F00000
F00000
ENDCHAR
STARTCHAR g
ENCODING 103
SWIDTH 888 0
DWIDTH 28 0
BBX 26 23 1 0
BITMAP
00FFFF00
03FFFF00
0FFFFF00
1FFFFF00
3F800000
3E000000
7C000000
78000000
78000000
F8000000
F01FFFC0
F01FFFC0
F01FFFC0
780003C0
780003C0
780003C0
7C0003C0
3E0003C0
1F8003C0
1FFFFFC0
0FFFFFC0
03FFFFC0
00FFFFC0
ENDCHAR
STARTCHAR h
ENCODING 104
SWIDTH 838 0
DWIDTH 27 0
BBX 23 23 2 0
BITMAP
F0001E
F0001E
F0001E
F0001E
F0001E
F0001E
F0001E
F0001E
F0001E
F1FFFE
F1FFFE
F1FFFE
F1FFFE
F0001E
F0001E
F0001E
F0001E
F0001E
F0001E
F0001E
F0001E
F0001E
F0001E
ENDCHAR
STARTCHAR i
ENCODING 105
SWIDTH 267 0
DWIDTH 9 0
BBX 4 23 2 0
BITMAP
F0
F0
F0
F0
F0
F0
F0
F0
F0
F0
F0
F0
F0
F0
F0
F0
F0
F0
F0
F0
F0
F0
F0
ENDCHAR
STARTCHAR j
ENCODING 106
SWIDTH 708 0
DWIDTH 23 0
BBX 20 23 1 0
BITMAP
0000F0
0000F0
0000F0
0000F0
0000F0
0000F0
0000F0
0000F0
0000F0
0000F0
0000F0
0000F0
0000F0
0000F0
0000F0
0001F0
0001E0
0003E0
000FE0
FFFFC0
FFFF80
FFFF00
FFF800
ENDCHAR
STARTCHAR k
ENCODING 107
SWIDTH 875 0
DWIDTH 28 0
BBX 25 23 2 0
BITMAP
F0003F80
F0007E00
F001FC00
F003F000
F007E000
F01FC000
F03F0000
F07E0000
F1FC0000
F3F00000
F7E00000
F7C00000
F3E00000
F1F80000
F0FC0000
F03E0000
F01F8000
F00FC000
F007E000
F001F800
F000FC00
F0007E00
F0001F80
ENDCHAR
STARTCHAR l
ENCODING 108
SWIDTH 707 0
DWIDTH 23 0
BBX 20 23 2 0
BITMAP
F00000
F00000
F00000
F00000
F00000
F00000
F00000
F00000
F00000
F00000
F00000
F00000
F00000
F00000
F00000
F00000
F00000
F00000
F00000
FFFFF0
FFFFF0
FFFFF0
FFFFF0
ENDCHAR
STARTCHAR m
ENCODING 109
SWIDTH 1115 0
DWIDTH 36 0
BBX 34 23 1 0
BITMAP
0380006000
03C000F000
07C000F000
07E001F800
07E001F800
07F003F800
0FF003F800
0FF807BC00
0F7807BC00
0F780F3C00
1E3C0F3E00
1E3C0F1E00
1E1E1E1E00
3C1E1E1E00
3C0F3C0F00
3C0F3C0F00
3C0FF80F00
7807F80F00
7807F00780
7803F00780
F003E00780
F001E003C0
F001C003C0
ENDCHAR
STARTCHAR n
ENCODING 110
SWIDTH 873 0
DWIDTH 28 0
BBX 24 23 2 0
BITMAP
60000F
F0000F
F8000F
FE000F
FF000F
FF800F
FFC00F
F7E00F
F3F00F
F1F80F
F0FC0F
F07E0F
F03F0F
F01F8F
F00FCF
F007EF
F003FF
F001FF
F000FF
F0007F
F0003F
F0001F
F00006
ENDCHAR
STARTCHAR o
ENCODING 111
SWIDTH 968 0
DWIDTH 31 0
BBX 29 23 1 0
BITMAP
00FFF800
03FFFE00
0FFFFF80
1FFFFFC0
3F800FE0
3E0003E0
7C0001F0
780000F0
780000F0
F80000F8
F0000078
F0000078
F0000078
780000F8
780000F0
780000F0
7C0001F0
3E0003E0
1F800FC0
1FFFFFC0
0FFFFF80
03FFFE00
00FFF800
ENDCHAR
STARTCHAR p
ENCODING 112
SWIDTH 867 0
DWIDTH 28 0
BBX 25 23 2 0
BITMAP
FFFFF000
FFFFFC00
FFFFFE00
FFFFFF00
F0001F00
F0000F00
F0000780
F0000780
F0000780
F0000780
F0000F80
F0000F00
F0001F00
F1FFFF00
F1FFFE00
F1FFFC00
F1FFF000
F0000000
F0000000
F0000000
F0000000
F0000000
F0000000
ENDCHAR
STARTCHAR q
ENCODING 113
SWIDTH 968 0
DWIDTH 31 0
BBX 30 23 1 0
BITMAP
00FFF800
03FFFE00
0FFFFF80
1FFFFFC0
3F800FE0
3E0003E0
7C0001F0
780000F0
780000F0
F80000F8
F0000078
F0000078
F0000078
780400F8
7803E0F0
7801F0F0
7C00FDF0
3E003FE0
1F801FC0
1FFFFFC0
0FFFFFE0
03FFFFF0
00FFF8FC
ENDCHAR
STARTCHAR r
ENCODING 114
SWIDTH 921 0
DWIDTH 29 0
BBX 27 23 2 0
BITMAP
FFFFF000
FFFFFC00
FFFFFE00
FFFFFF00
F0001F00
F0000F80
F0000780
F0000780
F0000780
F0000780
F0000780
F0000F80
F0001F00
F1FFFF00
F1FFFE00
F1FFFC00
F1FFF800
F000FC00
F0007E00
F0003F00
F0001F80
F0000FC0
F00007E0
ENDCHAR
STARTCHAR s
ENCODING 115
SWIDTH 880 0
DWIDTH 28 0
BBX 25 23 2 0
BITMAP
0FFFFF00
3FFFFF00
7FFFFF00
FFFFFF00
F8000000
F0000000
F0000000
F0000000
F0000000
F8000000
7FFFF800
3FFFFE00
0FFFFF00
00000F00
00000700
00000780
00000780
00000F80
00001F00
FFFFFF00
FFFFFE00
FFFFFC00
FFFFF800
ENDCHAR
STARTCHAR t
ENCODING 116
SWIDTH 720 0
DWIDTH 23 0
BBX 21 23 1 0
BITMAP
FFFFF8
FFFFF8
FFFFF8
FFFFF8
00F800
00F800
00F800
00F800
00F800
00F800
00F800
00F800
00F800
00F800
00F800
00F800
00F800
00F800
00F800
00F800
00F800
00F800
00F800
ENDCHAR
STARTCHAR u
ENCODING 117
SWIDTH 889 0
DWIDTH 28 0
BBX 25 23 2 0
BITMAP
F0000780
F0000780
F0000780
F0000780
F0000780
F0000780
F0000780
F0000780
F0000780
F0000780
F0000780
F0000780
F0000780
F0000780
F0000780
F0000F80
F8000F00
FC001F00
7F007E00
3FFFFE00
1FFFFC00
0FFFF000
01FFC000
ENDCHAR
STARTCHAR v
ENCODING 118
SWIDTH 989 0
DWIDTH 32 0
BBX 31 23 0 0
BITMAP
FC00003E
7C00003C
3E00007C
1F0000F8
1F0000F0
0F8001F0
0F8001E0
07C003E0
03E007C0
03E00780
01F00F80
00F00F00
00F81E00
007C3E00
007C3C00
003E7C00
001E7800
001FF000
000FF000
000FE000
0007E000
0003C000
00038000
ENDCHAR
STARTCHAR w
ENCODING 119
SWIDTH 1268 0
DWIDTH 41 0
BBX 40 23 0 0
BITMAP
FC0F80001F
7C07C0001E
3E03C0003E
3E03E0003C
1F01E0007C
1F01F00078
0F80F000F8
0780F801F0
07C07801E0
03C07C03E0
03E03E03C0
01F03E07C0
01F03F0780
00F87F0F80
00F8FF8F00
007CFF9F00
003DF7DE00
003FE3FC00
001FC3FC00
001FC1F800
000F81F800
000F80F000
0007006000
ENDCHAR
STARTCHAR x
ENCODING 120
SWIDTH 1000 0
DWIDTH 32 0
BBX 30 23 1 0
BITMAP
7E0001F8
3F0003F0
1F8007E0
0FC00F80
07E01F00
03F03E00
01F87C00
00FCF800
007FF000
003FE000
001FC000
000FC000
001FE000
003FF000
007DF800
00F8FC00
01F03E00
03E01F00
0FC00F80
1F8007C0
3F0003E0
7E0001F0
FC0000FC
ENDCHAR
STARTCHAR y
ENCODING 121
SWIDTH 926 0
DWIDTH 30 0
BBX 29 23 0 0
BITMAP
FC0000F8
3E0001F0
1F0003E0
1F8007C0
0FC00F80
07E01F00
03E01F00
01F03E00
00F87C00
007CF800
007FF000
003FE000
001FC000
000FC000
00078000
00078000
00078000
00078000
00078000
00078000
00078000
00078000
00078000
ENDCHAR
STARTCHAR z
ENCODING 122
SWIDTH 802 0
DWIDTH 26 0
BBX 23 23 1 0
BITMAP
7FFFFE
7FFFFE
7FFFFE
7FFFFE
0000FC
0001F8
0003F0
0007E0
000FC0
001F80
003F00
007E00
00FC00
01F000
03E000
07C000
0F8000
1F0000
3E0000
7FFFFE
FFFFFE
FFFFFE
7FFFFE
ENDCHAR
STARTCHAR braceleft
ENCODING 123
SWIDTH 337 0
DWIDTH 11 0
BBX 7 29 2 -3
BITMAP
1E
3E
38
30
30
30
30
30
30
30
30
30
30
70
F0
F0
30
30
30
30
30
30
30
30
30
30
38
3E
1E
ENDCHAR
STARTCHAR bar
ENCODING 124
SWIDTH 297 0
DWIDTH 10 0
BBX 2 29 4 -3
BITMAP
C0
C0
C0
C0
C0
C0
C0
C0
C0
C0
C0
C0
C0
C0
C0
C0
C0
C0
C0
C0
C0
C0
C0
C0
C0
C0
C0
C0
C0
ENDCHAR
STARTCHAR braceright
ENCODING 125
SWIDTH 337 0
DWIDTH 11 0
BBX 7 29 2 -3
BITMAP
E0
F8
78
38
38
38
38
38
38
38
38
38
38
18
1E
1E
38
38
38
38
38
38
38
38
38
38
38
F8
F0
ENDCHAR
STARTCHAR asciitilde
ENCODING 126
SWIDTH 691 0
DWIDTH 22 0
BBX 18 5 2 9
BITMAP
3E0040
FFC0C0
FFFFC0
C1FFC0
801F00
ENDCHAR
STARTCHAR nonbreakingspace
ENCODING 160
SWIDTH 294 0
DWIDTH 9 0
BBX 1 1 0 0
BITMAP
00
ENDCHAR
STARTCHAR exclamdown
ENCODING 161
SWIDTH 298 0
DWIDTH 10 0
BBX 4 23 3 0
BITMAP
E0
F0
F0
E0
00
00
00
F0
F0
F0
F0
F0
F0
F0
F0
F0
F0
F0
F0
F0
F0
F0
F0
ENDCHAR
STARTCHAR cent
ENCODING 162
SWIDTH 692 0
DWIDTH 22 0
BBX 20 23 1 0
BITMAP
000C00
000C00
03FFF0
0FFFF0
1FFFF0
3E0C00
7C0C00
780C00
700C00
F00C00
F00C00
F00C00
F00C00
700C00
700C00
780C00
3C0C00
3E0C00
1FFFF0
0FFFF0
03FFF0
000C00
000C00
ENDCHAR
STARTCHAR sterling
ENCODING 163
SWIDTH 709 0
DWIDTH 23 0
BBX 20 23 1 0
BITMAP
01FF80
07FF80
0FFF80
1FFF80
1F0000
1E0000
1E0000
1E0000
1E0000
1E0000
7FF800
7FF800
7FF800
1E0000
1E0000
1E0000
1E0000
1E0000
1E0000
FFFFF0
FFFFF0
FFFFF0
FFFFF0
ENDCHAR
STARTCHAR yen
ENCODING 165
SWIDTH 787 0
DWIDTH 25 0
BBX 23 23 1 0
BITMAP
F8003E
78003C
7C007C
3E00F8
1E00F0
1F01F0
0F83E0
0783C0
07C7C0
03E780
01EF00
01FF00
1FFFF0
1FFFF0
1FFFF0
003C00
003C00
003C00
1FFFF0
1FFFF0
1FFFF0
003C00
003C00
ENDCHAR
STARTCHAR brokenbar
ENCODING 166
SWIDTH 297 0
DWIDTH 10 0
BBX 2 29 4 -3
BITMAP
C0
C0
C0
C0
C0
C0
C0
C0
C0
C0
C0
C0
C0
00
00
00
C0
C0
C0
C0
C0
C0
C0
C0
C0
C0
C0
C0
C0
ENDCHAR
STARTCHAR section
ENCODING 167
SWIDTH 773 0
DWIDTH 25 0
BBX 21 30 2 -7
BITMAP
1FFFC0
3FFFC0
7FFFC0
FFFFC0
F80000
F00000
E00000
F00000
F00000
7FFF80
3FFFC0
3FFFE0
7801F0
7000F0
7000F0
7000F0
7801E0
7FFFE0
3FFFE0
1FFFF0
0000F0
000078
000078
000078
000078
0000F8
3FFFF0
3FFFF0
3FFFE0
3FFF80
ENDCHAR
STARTCHAR dieresis
ENCODING 168
SWIDTH 393 0
DWIDTH 13 0
BBX 9 3 2 25
BITMAP
C300
E380
E380
ENDCHAR
STARTCHAR copyright
ENCODING 169
SWIDTH 829 0
DWIDTH 27 0
BBX 24 23 1 0
BITMAP
007F00
0380C0
060030
080018
10000C
200004
207F02
40FF02
41C001
C38001
C30001
C30001
C30001
418001
40C001
407F02
200002
200004
10000C
080018
060030
0380C0
007F00
ENDCHAR
STARTCHAR ordfeminine
ENCODING 170
SWIDTH 604 0
DWIDTH 19 0
BBX 17 13 1 10
BITMAP
008000
01C000
01E000
03E000
077000
063000
0E3800
0C1C00
1DFC00
3BFE00
300700
700700
E00380
ENDCHAR
STARTCHAR guillemotleft
ENCODING 171
SWIDTH 629 0
DWIDTH 20 0
BBX 18 12 1 6
BITMAP
004040
0180C0
0383C0
0E0F00
3C1C00
707000
E06000
383800
1C0E00
070700
0181C0
008040
ENDCHAR
STARTCHAR registered
ENCODING 174
SWIDTH 585 0
DWIDTH 19 0
BBX 15 14 2 9
BITMAP
07C0
1830
2018
400C
CFC4
8826
8826
8BC6
8846
C824
400C
2018
1830
07C0
ENDCHAR
STARTCHAR macron
ENCODING 175
SWIDTH 362 0
DWIDTH 12 0
BBX 8 2 2 26
BITMAP
FF
FF
ENDCHAR
STARTCHAR degree
ENCODING 176
SWIDTH 361 0
DWIDTH 12 0
BBX 9 9 1 14
BITMAP
3E00
7F00
6180
C180
C180
C180
6380
7F00
1E00
ENDCHAR
STARTCHAR plusminus
ENCODING 177
SWIDTH 690 0
DWIDTH 22 0
BBX 18 23 2 -2
BITMAP
00C000
00C000
00C000
00C000
00C000
00C000
00C000
00C000
FFFFC0
FFFFC0
FFFFC0
00C000
00C000
00C000
00C000
00C000
00C000
00C000
000000
000000
FFFFC0
FFFFC0
FFFFC0
ENDCHAR
STARTCHAR twosuperior
ENCODING 178
SWIDTH 442 0
DWIDTH 14 0
BBX 12 11 1 12
BITMAP
7FC0
7FE0
0030
0030
3FE0
7FC0
6000
C000
C000
FFF0
FFF0
ENDCHAR
STARTCHAR threesuperior
ENCODING 179
SWIDTH 443 0
DWIDTH 14 0
BBX 12 11 1 12
BITMAP
FFC0
FFE0
0070
0030
1FE0
1FE0
0070
0030
0070
FFE0
FFC0
ENDCHAR
STARTCHAR acute
ENCODING 180
SWIDTH 362 0
DWIDTH 12 0
BBX 8 5 2 24
BITMAP
01
0F
7F
F8
80
ENDCHAR
STARTCHAR paragraph
ENCODING 182
SWIDTH 629 0
DWIDTH 20 0
BBX 17 26 1 -3
BITMAP
1FFF80
3FFF80
7FFF80
7FE180
FFE180
FFE180
7FE180
7FE180
7FE180
3FE180
0FE180
00E180
00E180
00E180
00E180
00E180
00E180
00E180
00E180
00E180
00E180
00E180
00E180
00E180
00E180
00E180
ENDCHAR
STARTCHAR periodcentered
ENCODING 183
SWIDTH 262 0
DWIDTH 8 0
BBX 4 4 2 9
BITMAP
70
F0
F0
70
ENDCHAR
STARTCHAR cedilla
ENCODING 184
SWIDTH 219 0
DWIDTH 7 0
BBX 5 5 1 -6
BITMAP
F8
70
70
20
20
ENDCHAR
STARTCHAR onesuperior
ENCODING 185
SWIDTH 222 0
DWIDTH 7 0
BBX 5 11 1 12
BITMAP
E0
F0
38
18
18
18
18
18
18
18
18
ENDCHAR
STARTCHAR ordmasculine
ENCODING 186
SWIDTH 592 0
DWIDTH 19 0
BBX 15 13 2 9
BITMAP
1FF0
3FF8
701C
E00E
C006
C006
C006
C006
C006
E00E
701C
3FF8
1FF0
ENDCHAR
STARTCHAR guillemotright
ENCODING 187
SWIDTH 629 0
DWIDTH 20 0
BBX 18 12 1 6
BITMAP
808000
C06000
707000
3C1C00
0E0700
038380
0181C0
070300
1C0E00
383800
E06000
804000
ENDCHAR
STARTCHAR onequarter
ENCODING 188
SWIDTH 972 0
DWIDTH 31 0
BBX 29 27 1 -2
BITMAP
00000700
00000600
1C000E00
1E001C00
07003800
03007000
03006000
0300E000
0301C000
03038000
03070000
03060000
030E0000
001C0000
0038C060
0070C060
0060C060
00E0C060
01C0C060
0380E060
07007FF8
06003FF8
0E000060
1C000060
38000060
30000000
F0000000
ENDCHAR
STARTCHAR onehalf
ENCODING 189
SWIDTH 948 0
DWIDTH 30 0
BBX 28 27 1 -2
BITMAP
00000700
00000600
1C000E00
1E001C00
07003800
03007000
03006000
0300E000
0301C000
03038000
03070000
03060000
030E0000
001C0000
00387FE0
00707FF0
00600030
00E00030
01C03FF0
03807FE0
07006000
06006000
0E006000
1C007FF0
38007FF0
30000000
F0000000
ENDCHAR
STARTCHAR threequarters
ENCODING 190
SWIDTH 1029 0
DWIDTH 33 0
BBX 31 27 1 -2
BITMAP
000001C0
00000380
FFC00300
FFF00700
00300E00
00301C00
1FE03800
1FE03000
00307000
0030E000
0071C000
FFF38000
FFC30000
00070000
000E3018
001C3018
00383018
00303018
00703018
00E03818
01C01FFE
01800FFE
03800018
07000018
0E000018
1C000000
38000000
ENDCHAR
STARTCHAR questiondown
ENCODING 191
SWIDTH 776 0
DWIDTH 25 0
BBX 22 23 1 0
BITMAP
000070
0000F0
0000F0
000070
000000
000000
000000
0000F0
0000F0
0000F0
0FFFF0
3FFFE0
7FFFC0
780000
F00000
F00000
F00000
F00000
F80000
7FFFFC
7FFFFC
3FFFFC
0FFFFC
ENDCHAR
STARTCHAR Agrave
ENCODING 192
SWIDTH 989 0
DWIDTH 32 0
BBX 31 29 0 0
BITMAP
00100000
001E0000
001FC000
0003E000
00002000
00000000
00038000
0003C000
0007E000
000FE000
000FF000
001FF000
001EF800
003E7C00
007C7C00
00783E00
00F81E00
00F01F00
01F00F80
03E00780
03C7FFC0
07C7FFE0
0F8FFFE0
0F0001F0
1F0000F0
1E0000F8
3E00007C
7C00007C
F800003E
ENDCHAR
STARTCHAR Aacute
ENCODING 193
SWIDTH 989 0
DWIDTH 32 0
BBX 31 29 0 0
BITMAP
00000800
00007800
0003F800
0007C000
00080000
00000000
00038000
0003C000
0007E000
000FE000
000FF000
001FF000
001EF800
003E7C00
007C7C00
00783E00
00F81E00
00F01F00
01F00F80
03E00780
03C7FFC0
07C7FFE0
0F8FFFE0
0F0001F0
1F0000F0
1E0000F8
3E00007C
7C00007C
F800003E
ENDCHAR
STARTCHAR Acircumflex
ENCODING 194
SWIDTH 989 0
DWIDTH 32 0
BBX 31 29 0 0
BITMAP
0003C000
0006C000
00066000
000C7000
00100000
00000000
00038000
0003C000
0007E000
000FE000
000FF000
001FF000
001EF800
003E7C00
007C7C00
00783E00
00F81E00
00F01F00
01F00F80
03E00780
03C7FFC0
07C7FFE0
0F8FFFE0
0F0001F0
1F0000F0
1E0000F8
3E00007C
7C00007C
F800003E
ENDCHAR
STARTCHAR Atilde
ENCODING 195
SWIDTH 989 0
DWIDTH 32 0
BBX 31 28 0 0
BITMAP
000F1000
000FF000
0010F000
00000000
00000000
00038000
0003C000
0007E000
000FE000
000FF000
001FF000
001EF800
003E7C00
007C7C00
00783E00
00F81E00
00F01F00
01F00F80
03E00780
03C7FFC0
07C7FFE0
0F8FFFE0
0F0001F0
1F0000F0
1E0000F8
3E00007C
7C00007C
F800003E
ENDCHAR
STARTCHAR Adieresis
ENCODING 196
SWIDTH 989 0
DWIDTH 32 0
BBX 31 28 0 0
BITMAP
000C3000
001C7000
000C3000
00000000
00000000
00038000
0003C000
0007E000
000FE000
000FF000
001FF000
001EF800
003E7C00
007C7C00
00783E00
00F81E00
00F01F00
01F00F80
03E00780
03C7FFC0
07C7FFE0
0F8FFFE0
0F0001F0
1F0000F0
1E0000F8
3E00007C
7C00007C
F800003E
ENDCHAR
STARTCHAR Aring
ENCODING 197
SWIDTH 989 0
DWIDTH 32 0
BBX 31 31 0 0
BITMAP
0007E000
000C3000
00081000
00081000
000C2000
0007E000
00000000
00000000
00038000
0003C000
0007E000
000FE000
000FF000
001FF000
001EF800
003E7C00
007C7C00
00783E00
00F81E00
00F01F00
01F00F80
03E00780
03C7FFC0
07C7FFE0
0F8FFFE0
0F0001F0
1F0000F0
1E0000F8
3E00007C
7C00007C
F800003E
ENDCHAR
STARTCHAR AE
ENCODING 198
SWIDTH 1345 0
DWIDTH 43 0
BBX 42 23 0 0
BITMAP
0003FFFFFFC0
0007FFFFFFC0
0007FFFFFFC0
000FFFFFFFC0
001F03C00000
001E03C00000
003E03C00000
003C03C00000
007803C00000
00F803C00000
00F003C7FF80
01F003C7FF80
01E003C7FF80
03E003C00000
07C7FFC00000
078FFFC00000
0F8FFFC00000
0F0003C00000
1F0003C00000
3E0003FFFFC0
3C0003FFFFC0
7C0003FFFFC0
F80003FFFFC0
ENDCHAR
STARTCHAR Ccedilla
ENCODING 199
SWIDTH 829 0
DWIDTH 27 0
BBX 24 29 1 -6
BITMAP
00FFFF
03FFFF
0FFFFF
1FFFFF
3F8000
3E0000
7C0000
780000
780000
F80000
F00000
F00000
F00000
780000
780000
780000
7C0000
3E0000
1F8000
1FFFFF
0FFFFF
03FFFF
00FFFF
000000
001E00
001C00
000C00
000C00
000800
ENDCHAR
STARTCHAR Egrave
ENCODING 200
SWIDTH 759 0
DWIDTH 24 0
BBX 21 29 2 0
BITMAP
040000
078000
07F000
00F800
000400
000000
FFFFF8
FFFFF8
FFFFF8
FFFFF8
F00000
F00000
F00000
F00000
F00000
F00000
F1FFF0
F1FFF0
F1FFF0
F00000
F00000
F00000
F00000
F00000
F00000
FFFFF8
FFFFF8
FFFFF8
FFFFF8
ENDCHAR
STARTCHAR Eacute
ENCODING 201
SWIDTH 759 0
DWIDTH 24 0
BBX 21 29 2 0
BITMAP
000200
001E00
00FE00
01F000
010000
000000
FFFFF8
FFFFF8
FFFFF8
FFFFF8
F00000
F00000
F00000
F00000
F00000
F00000
F1FFF0
F1FFF0
F1FFF0
F00000
F00000
F00000
F00000
F00000
F00000
FFFFF8
FFFFF8
FFFFF8
FFFFF8
ENDCHAR
STARTCHAR Ecircumflex
ENCODING 202
SWIDTH 759 0
DWIDTH 24 0
BBX 21 29 2 0
BITMAP
00F000
00F800
019800
030C00
000200
000000
FFFFF8
FFFFF8
FFFFF8
FFFFF8
F00000
F00000
F00000
F00000
F00000
F00000
F1FFF0
F1FFF0
F1FFF0
F00000
F00000
F00000
F00000
F00000
F00000
FFFFF8
FFFFF8
FFFFF8
FFFFF8
ENDCHAR
STARTCHAR Edieresis
ENCODING 203
SWIDTH 759 0
DWIDTH 24 0
BBX 21 28 2 0
BITMAP
030C00
039E00
030C00
000000
000000
FFFFF8
FFFFF8
FFFFF8
FFFFF8
F00000
F00000
F00000
F00000
F00000
F00000
F1FFF0
F1FFF0
F1FFF0
F00000
F00000
F00000
F00000
F00000
F00000
FFFFF8
FFFFF8
FFFFF8
FFFFF8
ENDCHAR
STARTCHAR Igrave
ENCODING 204
SWIDTH 267 0
DWIDTH 9 0
BBX 8 29 -1 0
BITMAP
80
F0
FF
1F
01
00
1E
1E
1E
1E
1E
1E
1E
1E
1E
1E
1E
1E
1E
1E
1E
1E
1E
1E
1E
1E
1E
1E
1E
ENDCHAR
STARTCHAR Iacute
ENCODING 205
SWIDTH 267 0
DWIDTH 9 0
BBX 8 29 1 0
BITMAP
01
0F
7F
F8
80
00
78
78
78
78
78
78
78
78
78
78
78
78
78
78
78
78
78
78
78
78
78
78
78
ENDCHAR
STARTCHAR Icircumflex
ENCODING 206
SWIDTH 267 0
DWIDTH 9 0
BBX 9 29 0 0
BITMAP
3C00
3600
6700
E300
0080
0000
3C00
3C00
3C00
3C00
3C00
3C00
3C00
3C00
3C00
3C00
3C00
3C00
3C00
3C00
3C00
3C00
3C00
3C00
3C00
3C00
3C00
3C00
3C00
ENDCHAR
STARTCHAR Idieresis
ENCODING 207
SWIDTH 267 0
DWIDTH 9 0
BBX 9 28 0 0
BITMAP
C300
E380
E380
0000
0000
3C00
3C00
3C00
3C00
3C00
3C00
3C00
3C00
3C00
3C00
3C00
3C00
3C00
3C00
3C00
3C00
3C00
3C00
3C00
3C00
3C00
3C00
3C00
ENDCHAR
STARTCHAR Eth
ENCODING 208
SWIDTH 877 0
DWIDTH 28 0
BBX 27 23 0 0
BITMAP
3FFFE000
3FFFF800
3FFFFE00
3FFFFF00
3C003F80
3C000F80
3C0007C0
3C0003C0
3C0003C0
3C0003E0
FFFE01E0
FFFE01E0
FFFE01E0
3C0003E0
3C0003C0
3C0003C0
3C0007C0
3C000F80
3C003F80
3FFFFF00
3FFFFE00
3FFFF800
3FFFE000
ENDCHAR
STARTCHAR Ntilde
ENCODING 209
SWIDTH 873 0
DWIDTH 28 0
BBX 24 28 2 0
BITMAP
00F100
00FF00
008F00
000000
000000
60000F
F0000F
F8000F
FE000F
FF000F
FF800F
FFC00F
F7E00F
F3F00F
F1F80F
F0FC0F
F07E0F
F03F0F
F01F8F
F00FCF
F007EF
F003FF
F001FF
F000FF
F0007F
F0003F
F0001F
F00006
ENDCHAR
STARTCHAR Ograve
ENCODING 210
SWIDTH 968 0
DWIDTH 31 0
BBX 29 29 1 0
BITMAP
00400000
00780000
007F8000
000FC000
00004000
00000000
00FFF800
03FFFE00
0FFFFF80
1FFFFFC0
3F800FE0
3E0003E0
7C0001F0
780000F0
780000F0
F80000F8
F0000078
F0000078
F0000078
780000F8
780000F0
780000F0
7C0001F0
3E0003E0
1F800FC0
1FFFFFC0
0FFFFF80
03FFFE00
00FFF800
ENDCHAR
STARTCHAR Oacute
ENCODING 211
SWIDTH 968 0
DWIDTH 31 0
BBX 29 29 1 0
BITMAP
00001000
0000F000
000FF000
001F0000
00100000
00000000
00FFF800
03FFFE00
0FFFFF80
1FFFFFC0
3F800FE0
3E0003E0
7C0001F0
780000F0
780000F0
F80000F8
F0000078
F0000078
F0000078
780000F8
780000F0
780000F0
7C0001F0
3E0003E0
1F800FC0
1FFFFFC0
0FFFFF80
03FFFE00
00FFF800
ENDCHAR
STARTCHAR Ocircumflex
ENCODING 212
SWIDTH 968 0
DWIDTH 31 0
BBX 29 29 1 0
BITMAP
00070000
000D8000
0019C000
0038E000
00000000
00000000
00FFF800
03FFFE00
0FFFFF80
1FFFFFC0
3F800FE0
3E0003E0
7C0001F0
780000F0
780000F0
F80000F8
F0000078
F0000078
F0000078
780000F8
780000F0
780000F0
7C0001F0
3E0003E0
1F800FC0
1FFFFFC0
0FFFFF80
03FFFE00
00FFF800
ENDCHAR
STARTCHAR Otilde
ENCODING 213
SWIDTH 968 0
DWIDTH 31 0
BBX 29 28 1 0
BITMAP
001C2000
003FE000
0021C000
00000000
00000000
00FFF800
03FFFE00
0FFFFF80
1FFFFFC0
3F800FE0
3E0003E0
7C0001F0
780000F0
780000F0
F80000F8
F0000078
F0000078
F0000078
780000F8
780000F0
780000F0
7C0001F0
3E0003E0
1F800FC0
1FFFFFC0
0FFFFF80
03FFFE00
00FFF800
ENDCHAR
STARTCHAR Odieresis
ENCODING 214
SWIDTH 968 0
DWIDTH 31 0
BBX 29 28 1 0
BITMAP
0038C000
0038E000
0038E000
00000000
00000000
00FFF800
03FFFE00
0FFFFF80
1FFFFFC0
3F800FE0
3E0003E0
7C0001F0
780000F0
780000F0
F80000F8
F0000078
F0000078
F0000078
780000F8
780000F0
780000F0
7C0001F0
3E0003E0
1F800FC0
1FFFFFC0
0FFFFF80
03FFFE00
00FFF800
ENDCHAR
STARTCHAR multiply
ENCODING 215
SWIDTH 690 0
DWIDTH 22 0
BBX 14 15 4 4
BITMAP
4008
E01C
F03C
7878
3CF0
1FE0
0FC0
0780
0FC0
1FE0
3CF0
7878
F03C
601C
4008
ENDCHAR
STARTCHAR Oslash
ENCODING 216
SWIDTH 968 0
DWIDTH 31 0
BBX 29 27 1 -2
BITMAP
00000080
000000C0
00FFF980
03FFFF00
0FFFFF80
1FFFFFC0
3F800FE0
3E001BE0
7C0031F0
780061F0
7800E0F0
F801C0F8
F0018078
F0030078
F0060078
F80C00F8
781800F0
783000F0
7C7001F0
3E6003E0
1FC00FC0
1FFFFFC0
0FFFFF80
07FFFE00
0CFFF800
18000000
08000000
ENDCHAR
STARTCHAR Ugrave
ENCODING 217
SWIDTH 889 0
DWIDTH 28 0
BBX 25 29 2 0
BITMAP
01000000
01E00000
01FC0000
003E0000
00010000
00000000
F0000780
F0000780
F0000780
F0000780
F0000780
F0000780
F0000780
F0000780
F0000780
F0000780
F0000780
F0000780
F0000780
F0000780
F0000780
F0000F80
F8000F00
FC001F00
7F007E00
3FFFFE00
1FFFFC00
0FFFF000
01FFC000
ENDCHAR
STARTCHAR Uacute
ENCODING 218
SWIDTH 889 0
DWIDTH 28 0
BBX 25 29 2 0
BITMAP
00008000
00078000
003F8000
007C0000
00400000
00000000
F0000780
F0000780
F0000780
F0000780
F0000780
F0000780
F0000780
F0000780
F0000780
F0000780
F0000780
F0000780
F0000780
F0000780
F0000780
F0000F80
F8000F00
FC001F00
7F007E00
3FFFFE00
1FFFFC00
0FFFF000
01FFC000
ENDCHAR
STARTCHAR Ucircumflex
ENCODING 219
SWIDTH 889 0
DWIDTH 28 0
BBX 25 29 2 0
BITMAP
003C0000
00360000
00660000
00E30000
00008000
00000000
F0000780
F0000780
F0000780
F0000780
F0000780
F0000780
F0000780
F0000780
F0000780
F0000780
F0000780
F0000780
F0000780
F0000780
F0000780
F0000F80
F8000F00
FC001F00
7F007E00
3FFFFE00
1FFFFC00
0FFFF000
01FFC000
ENDCHAR
STARTCHAR Udieresis
ENCODING 220
SWIDTH 889 0
DWIDTH 28 0
BBX 25 28 2 0
BITMAP
00C30000
00E38000
00E30000
00000000
00000000
F0000780
F0000780
F0000780
F0000780
F0000780
F0000780
F0000780
F0000780
F0000780
F0000780
F0000780
F0000780
F0000780
F0000780
F0000780
F0000F80
F8000F00
FC001F00
7F007E00
3FFFFE00
1FFFFC00
0FFFF000
01FFC000
ENDCHAR
STARTCHAR Yacute
ENCODING 221
SWIDTH 926 0
DWIDTH 30 0
BBX 29 29 0 0
BITMAP
00001000
0000F000
0007F000
000F8000
00100000
00000000
FC0000F8
3E0001F0
1F0003E0
1F8007C0
0FC00F80
07E01F00
03E01F00
01F03E00
00F87C00
007CF800
007FF000
003FE000
001FC000
000FC000
00078000
00078000
00078000
00078000
00078000
00078000
00078000
00078000
00078000
ENDCHAR
STARTCHAR Thorn
ENCODING 222
SWIDTH 843 0
DWIDTH 27 0
BBX 24 23 2 0
BITMAP
F00000
F00000
F00000
FFFFE0
FFFFF8
FFFFFC
FFFFFE
F0003E
F0001F
F0000F
F0000F
F0000F
F0000F
F0000F
F0001F
F0003E
F1FFFE
F1FFFC
F1FFF8
F1FFE0
F00000
F00000
F00000
ENDCHAR
STARTCHAR germandbls
ENCODING 223
SWIDTH 1760 0
DWIDTH 56 0
BBX 53 23 2 0
BITMAP
0FFFFF00FFFFF0
3FFFFF03FFFFF0
7FFFFF07FFFFF0
FFFFFF0FFFFFF0
F800000F800000
F000000F000000
F000000F000000
F000000F000000
F000000F000000
F800000F800000
7FFFF807FFFF80
3FFFFE03FFFFE0
0FFFFF00FFFFF0
00000F000000F0
00000700000078
00000780000078
00000780000078
00000F80000078
00001F000000F8
FFFFFF0FFFFFF0
FFFFFE0FFFFFF0
FFFFFC0FFFFFE0
FFFFF80FFFFF80
ENDCHAR
STARTCHAR agrave
ENCODING 224
SWIDTH 989 0
DWIDTH 32 0
BBX 31 29 0 0
BITMAP
00100000
001E0000
001FC000
0003E000
00002000
00000000
00038000
0003C000
0007E000
000FE000
000FF000
001FF000
001EF800
003E7C00
007C7C00
00783E00
00F81E00
00F01F00
01F00F80
03E00780
03C7FFC0
07C7FFE0
0F8FFFE0
0F0001F0
1F0000F0
1E0000F8
3E00007C
7C00007C
F800003E
ENDCHAR
STARTCHAR aacute
ENCODING 225
SWIDTH 989 0
DWIDTH 32 0
BBX 31 29 0 0
BITMAP
00000800
00007800
0003F800
0007C000
00080000
00000000
00038000
0003C000
0007E000
000FE000
000FF000
001FF000
001EF800
003E7C00
007C7C00
00783E00
00F81E00
00F01F00
01F00F80
03E00780
03C7FFC0
07C7FFE0
0F8FFFE0
0F0001F0
1F0000F0
1E0000F8
3E00007C
7C00007C
F800003E
ENDCHAR
STARTCHAR acircumflex
ENCODING 226
SWIDTH 989 0
DWIDTH 32 0
BBX 31 29 0 0
BITMAP
0003C000
0006C000
00066000
000C7000
00100000
00000000
00038000
0003C000
0007E000
000FE000
000FF000
001FF000
001EF800
003E7C00
007C7C00
00783E00
00F81E00
00F01F00
01F00F80
03E00780
03C7FFC0
07C7FFE0
0F8FFFE0
0F0001F0
1F0000F0
1E0000F8
3E00007C
7C00007C
F800003E
ENDCHAR
STARTCHAR atilde
ENCODING 227
SWIDTH 989 0
DWIDTH 32 0
BBX 31 28 0 0
BITMAP
000F1000
000FF000
0010F000
00000000
00000000
00038000
0003C000
0007E000
000FE000
000FF000
001FF000
001EF800
003E7C00
007C7C00
00783E00
00F81E00
00F01F00
01F00F80
03E00780
03C7FFC0
07C7FFE0
0F8FFFE0
0F0001F0
1F0000F0
1E0000F8
3E00007C
7C00007C
F800003E
ENDCHAR
STARTCHAR adieresis
ENCODING 228
SWIDTH 989 0
DWIDTH 32 0
BBX 31 28 0 0
BITMAP
000C3000
001C7000
000C3000
00000000
00000000
00038000
0003C000
0007E000
000FE000
000FF000
001FF000
001EF800
003E7C00
007C7C00
00783E00
00F81E00
00F01F00
01F00F80
03E00780
03C7FFC0
07C7FFE0
0F8FFFE0
0F0001F0
1F0000F0
1E0000F8
3E00007C
7C00007C
F800003E
ENDCHAR
STARTCHAR aring
ENCODING 229
SWIDTH 989 0
DWIDTH 32 0
BBX 31 31 0 0
BITMAP
0007E000
000C3000
00081000
00081000
000C2000
0007E000
00000000
00000000
00038000
0003C000
0007E000
000FE000
000FF000
001FF000
001EF800
003E7C00
007C7C00
00783E00
00F81E00
00F01F00
01F00F80
03E00780
03C7FFC0
07C7FFE0
0F8FFFE0
0F0001F0
1F0000F0
1E0000F8
3E00007C
7C00007C
F800003E
ENDCHAR
STARTCHAR ae
ENCODING 230
SWIDTH 1345 0
DWIDTH 43 0
BBX 42 23 0 0
BITMAP
0003FFFFFFC0
0007FFFFFFC0
0007FFFFFFC0
000FFFFFFFC0
001F03C00000
001E03C00000
003E03C00000
003C03C00000
007803C00000
00F803C00000
00F003C7FF80
01F003C7FF80
01E003C7FF80
03E003C00000
07C7FFC00000
078FFFC00000
0F8FFFC00000
0F0003C00000
1F0003C00000
3E0003FFFFC0
3C0003FFFFC0
7C0003FFFFC0
F80003FFFFC0
ENDCHAR
STARTCHAR ccedilla
ENCODING 231
SWIDTH 829 0
DWIDTH 27 0
BBX 24 29 1 -6
BITMAP
00FFFF
03FFFF
0FFFFF
1FFFFF
3F8000
3E0000
7C0000
780000
780000
F80000
F00000
F00000
F00000
780000
780000
780000
7C0000
3E0000
1F8000
1FFFFF
0FFFFF
03FFFF
00FFFF
000000
001E00
001C00
000C00
000C00
000800
ENDCHAR
STARTCHAR egrave
ENCODING 232
SWIDTH 759 0
DWIDTH 24 0
BBX 21 29 2 0
BITMAP
040000
078000
07F000
00F800
000400
000000
FFFFF8
FFFFF8
FFFFF8
FFFFF8
F00000
F00000
F00000
F00000
F00000
F00000
F1FFF0
F1FFF0
F1FFF0
F00000
F00000
F00000
F00000
F00000
F00000
FFFFF8
FFFFF8
FFFFF8
FFFFF8
ENDCHAR
STARTCHAR eacute
ENCODING 233
SWIDTH 759 0
DWIDTH 24 0
BBX 21 29 2 0
BITMAP
000200
001E00
00FE00
01F000
010000
000000
FFFFF8
FFFFF8
FFFFF8
FFFFF8
F00000
F00000
F00000
F00000
F00000
F00000
F1FFF0
F1FFF0
F1FFF0
F00000
F00000
F00000
F00000
F00000
F00000
FFFFF8
FFFFF8
FFFFF8
FFFFF8
ENDCHAR
STARTCHAR ecircumflex
ENCODING 234
SWIDTH 759 0
DWIDTH 24 0
BBX 21 29 2 0
BITMAP
00F000
00F800
019800
030C00
000200
000000
FFFFF8
FFFFF8
FFFFF8
FFFFF8
F00000
F00000
F00000
F00000
F00000
F00000
F1FFF0
F1FFF0
F1FFF0
F00000
F00000
F00000
F00000
F00000
F00000
FFFFF8
FFFFF8
FFFFF8
FFFFF8
ENDCHAR
STARTCHAR edieresis
ENCODING 235
SWIDTH 759 0
DWIDTH 24 0
BBX 21 28 2 0
BITMAP
030C00
039E00
030C00
000000
000000
FFFFF8
FFFFF8
FFFFF8
FFFFF8
F00000
F00000
F00000
F00000
F00000
F00000
F1FFF0
F1FFF0
F1FFF0
F00000
F00000
F00000
F00000
F00000
F00000
FFFFF8
FFFFF8
FFFFF8
FFFFF8
ENDCHAR
STARTCHAR igrave
ENCODING 236
SWIDTH 267 0
DWIDTH 9 0
BBX 8 29 -1 0
BITMAP
80
F0
FF
1F
01
00
1E
1E
1E
1E
1E
1E
1E
1E
1E
1E
1E
1E
1E
1E
1E
1E
1E
1E
1E
1E
1E
1E
1E
ENDCHAR
STARTCHAR iacute
ENCODING 237
SWIDTH 267 0
DWIDTH 9 0
BBX 8 29 1 0
BITMAP
01
0F
7F
F8
80
00
78
78
78
78
78
78
78
78
78
78
78
78
78
78
78
78
78
78
78
78
78
78
78
ENDCHAR
STARTCHAR icircumflex
ENCODING 238
SWIDTH 267 0
DWIDTH 9 0
BBX 9 29 0 0
BITMAP
3C00
3600
6700
E300
0080
0000
3C00
3C00
3C00
3C00
3C00
3C00
3C00
3C00
3C00
3C00
3C00
3C00
3C00
3C00
3C00
3C00
3C00
3C00
3C00
3C00
3C00
3C00
3C00
ENDCHAR
STARTCHAR idieresis
ENCODING 239
SWIDTH 267 0
DWIDTH 9 0
BBX 9 28 0 0
BITMAP
C300
E380
E380
0000
0000
3C00
3C00
3C00
3C00
3C00
3C00
3C00
3C00
3C00
3C00
3C00
3C00
3C00
3C00
3C00
3C00
3C00
3C00
3C00
3C00
3C00
3C00
3C00
ENDCHAR
STARTCHAR eth
ENCODING 240
SWIDTH 877 0
DWIDTH 28 0
BBX 27 23 0 0
BITMAP
3FFFE000
3FFFF800
3FFFFE00
3FFFFF00
3C003F80
3C000F80
3C0007C0
3C0003C0
3C0003C0
3C0003E0
FFFE01E0
FFFE01E0
FFFE01E0
3C0003E0
3C0003C0
3C0003C0
3C0007C0
3C000F80
3C003F80
3FFFFF00
3FFFFE00
3FFFF800
3FFFE000
ENDCHAR
STARTCHAR ntilde
ENCODING 241
SWIDTH 873 0
DWIDTH 28 0
BBX 24 28 2 0
BITMAP
00F100
00FF00
008F00
000000
000000
60000F
F0000F
F8000F
FE000F
FF000F
FF800F
FFC00F
F7E00F
F3F00F
F1F80F
F0FC0F
F07E0F
F03F0F
F01F8F
F00FCF
F007EF
F003FF
F001FF
F000FF
F0007F
F0003F
F0001F
F00006
ENDCHAR
STARTCHAR ograve
ENCODING 242
SWIDTH 968 0
DWIDTH 31 0
BBX 29 29 1 0
BITMAP
00400000
00780000
007F8000
000FC000
00004000
00000000
00FFF800
03FFFE00
0FFFFF80
1FFFFFC0
3F800FE0
3E0003E0
7C0001F0
780000F0
780000F0
F80000F8
F0000078
F0000078
F0000078
780000F8
780000F0
780000F0
7C0001F0
3E0003E0
1F800FC0
1FFFFFC0
0FFFFF80
03FFFE00
00FFF800
ENDCHAR
STARTCHAR oacute
ENCODING 243
SWIDTH 968 0
DWIDTH 31 0
BBX 29 29 1 0
BITMAP
00001000
0000F000
000FF000
001F0000
00100000
00000000
00FFF800
03FFFE00
0FFFFF80
1FFFFFC0
3F800FE0
3E0003E0
7C0001F0
780000F0
780000F0
F80000F8
F0000078
F0000078
F0000078
780000F8
780000F0
780000F0
7C0001F0
3E0003E0
1F800FC0
1FFFFFC0
0FFFFF80
03FFFE00
00FFF800
ENDCHAR
STARTCHAR ocircumflex
ENCODING 244
SWIDTH 968 0
DWIDTH 31 0
BBX 29 29 1 0
BITMAP
00070000
000D8000
0019C000
0038E000
00000000
00000000
00FFF800
03FFFE00
0FFFFF80
1FFFFFC0
3F800FE0
3E0003E0
7C0001F0
780000F0
780000F0
F80000F8
F0000078
F0000078
F0000078
780000F8
780000F0
780000F0
7C0001F0
3E0003E0
1F800FC0
1FFFFFC0
0FFFFF80
03FFFE00
00FFF800
ENDCHAR
STARTCHAR otilde
ENCODING 245
SWIDTH 968 0
DWIDTH 31 0
BBX 29 28 1 0
BITMAP
001C2000
003FE000
0021C000
00000000
00000000
00FFF800
03FFFE00
0FFFFF80
1FFFFFC0
3F800FE0
3E0003E0
7C0001F0
780000F0
780000F0
F80000F8
F0000078
F0000078
F0000078
780000F8
780000F0
780000F0
7C0001F0
3E0003E0
1F800FC0
1FFFFFC0
0FFFFF80
03FFFE00
00FFF800
ENDCHAR
STARTCHAR odieresis
ENCODING 246
SWIDTH 968 0
DWIDTH 31 0
BBX 29 28 1 0
BITMAP
0038C000
0038E000
0038E000
00000000
00000000
00FFF800
03FFFE00
0FFFFF80
1FFFFFC0
3F800FE0
3E0003E0
7C0001F0
780000F0
780000F0
F80000F8
F0000078
F0000078
F0000078
780000F8
780000F0
780000F0
7C0001F0
3E0003E0
1F800FC0
1FFFFFC0
0FFFFF80
03FFFE00
00FFF800
ENDCHAR
STARTCHAR divide
ENCODING 247
SWIDTH 690 0
DWIDTH 22 0
BBX 18 21 2 1
BITMAP
00E000
01E000
01E000
00C000
000000
000000
000000
000000
000000
FFFFC0
FFFFC0
FFFFC0
000000
000000
000000
000000
000000
00E000
01E000
01E000
00C000
ENDCHAR
STARTCHAR oslash
ENCODING 248
SWIDTH 968 0
DWIDTH 31 0
BBX 29 27 1 -2
BITMAP
00000080
000000C0
00FFF980
03FFFF00
0FFFFF80
1FFFFFC0
3F800FE0
3E001BE0
7C0031F0
780061F0
7800E0F0
F801C0F8
F0018078
F0030078
F0060078
F80C00F8
781800F0
783000F0
7C7001F0
3E6003E0
1FC00FC0
1FFFFFC0
0FFFFF80
07FFFE00
0CFFF800
18000000
08000000
ENDCHAR
STARTCHAR ugrave
ENCODING 249
SWIDTH 889 0
DWIDTH 28 0
BBX 25 29 2 0
BITMAP
01000000
01E00000
01FC0000
003E0000
00010000
00000000
F0000780
F0000780
F0000780
F0000780
F0000780
F0000780
F0000780
F0000780
F0000780
F0000780
F0000780
F0000780
F0000780
F0000780
F0000780
F0000F80
F8000F00
FC001F00
7F007E00
3FFFFE00
1FFFFC00
0FFFF000
01FFC000
ENDCHAR
STARTCHAR uacute
ENCODING 250
SWIDTH 889 0
DWIDTH 28 0
BBX 25 29 2 0
BITMAP
00008000
00078000
003F8000
007C0000
00400000
00000000
F0000780
F0000780
F0000780
F0000780
F0000780
F0000780
F0000780
F0000780
F0000780
F0000780
F0000780
F0000780
F0000780
F0000780
F0000780
F0000F80
F8000F00
FC001F00
7F007E00
3FFFFE00
1FFFFC00
0FFFF000
01FFC000
ENDCHAR
STARTCHAR ucircumflex
ENCODING 251
SWIDTH 889 0
DWIDTH 28 0
BBX 25 29 2 0
BITMAP
003C0000
00360000
00660000
00E30000
00008000
00000000
F0000780
F0000780
F0000780
F0000780
F0000780
F0000780
F0000780
F0000780
F0000780
F0000780
F0000780
F0000780
F0000780
F0000780
F0000780
F0000F80
F8000F00
FC001F00
7F007E00
3FFFFE00
1FFFFC00
0FFFF000
01FFC000
ENDCHAR
STARTCHAR udieresis
ENCODING 252
SWIDTH 889 0
DWIDTH 28 0
BBX 25 28 2 0
BITMAP
00C30000
00E38000
00E30000
00000000
00000000
F0000780
F0000780
F0000780
F0000780
F0000780
F0000780
F0000780
F0000780
F0000780
F0000780
F0000780
F0000780
F0000780
F0000780
F0000780
F0000F80
F8000F00
FC001F00
7F007E00
3FFFFE00
1FFFFC00
0FFFF000
01FFC000
ENDCHAR
STARTCHAR yacute
ENCODING 253
SWIDTH 926 0
DWIDTH 30 0
BBX 29 29 0 0
BITMAP
00001000
0000F000
0007F000
000F8000
00100000
00000000
FC0000F8
3E0001F0
1F0003E0
1F8007C0
0FC00F80
07E01F00
03E01F00
01F03E00
00F87C00
007CF800
007FF000
003FE000
001FC000
000FC000
00078000
00078000
00078000
00078000
00078000
00078000
00078000
00078000
00078000
ENDCHAR
STARTCHAR thorn
ENCODING 254
SWIDTH 843 0
DWIDTH 27 0
BBX 24 23 2 0
BITMAP
F00000
F00000
F00000
FFFFE0
FFFFF8
FFFFFC
FFFFFE
F0003E
F0001F
F0000F
F0000F
F0000F
F0000F
F0000F
F0001F
F0003E
F1FFFE
F1FFFC
F1FFF8
F1FFE0
F00000
F00000
F00000
ENDCHAR
STARTCHAR ydieresis
ENCODING 255
SWIDTH 926 0
DWIDTH 30 0
BBX 29 28 0 0
BITMAP
00186000
003CF000
00186000
00000000
00000000
FC0000F8
3E0001F0
1F0003E0
1F8007C0
0FC00F80
07E01F00
03E01F00
01F03E00
00F87C00
007CF800
007FF000
003FE000
001FC000
000FC000
00078000
00078000
00078000
00078000
00078000
00078000
00078000
00078000
00078000
ENDCHAR
STARTCHAR Amacron
ENCODING 256
SWIDTH 989 0
DWIDTH 32 0
BBX 31 28 0 0
BITMAP
000FF000
000FF000
00000000
00000000
00000000
00038000
0003C000
0007E000
000FE000
000FF000
001FF000
001EF800
003E7C00
007C7C00
00783E00
00F81E00
00F01F00
01F00F80
03E00780
03C7FFC0
07C7FFE0
0F8FFFE0
0F0001F0
1F0000F0
1E0000F8
3E00007C
7C00007C
F800003E
ENDCHAR
STARTCHAR amacron
ENCODING 257
SWIDTH 989 0
DWIDTH 32 0
BBX 31 28 0 0
BITMAP
000FF000
000FF000
00000000
00000000
00000000
00038000
0003C000
0007E000
000FE000
000FF000
001FF000
001EF800
003E7C00
007C7C00
00783E00
00F81E00
00F01F00
01F00F80
03E00780
03C7FFC0
07C7FFE0
0F8FFFE0
0F0001F0
1F0000F0
1E0000F8
3E00007C
7C00007C
F800003E
ENDCHAR
STARTCHAR Abreve
ENCODING 258
SWIDTH 989 0
DWIDTH 32 0
BBX 31 29 0 0
BITMAP
001C3000
000C3000
000C7000
0007E000
00000000
00000000
00038000
0003C000
0007E000
000FE000
000FF000
001FF000
001EF800
003E7C00
007C7C00
00783E00
00F81E00
00F01F00
01F00F80
03E00780
03C7FFC0
07C7FFE0
0F8FFFE0
0F0001F0
1F0000F0
1E0000F8
3E00007C
7C00007C
F800003E
ENDCHAR
STARTCHAR abreve
ENCODING 259
SWIDTH 989 0
DWIDTH 32 0
BBX 31 29 0 0
BITMAP
001C3000
000C3000
000C7000
0007E000
00000000
00000000
00038000
0003C000
0007E000
000FE000
000FF000
001FF000
001EF800
003E7C00
007C7C00
00783E00
00F81E00
00F01F00
01F00F80
03E00780
03C7FFC0
07C7FFE0
0F8FFFE0
0F0001F0
1F0000F0
1E0000F8
3E00007C
7C00007C
F800003E
ENDCHAR
STARTCHAR Aogonek
ENCODING 260
SWIDTH 989 0
DWIDTH 32 0
BBX 31 30 0 -7
BITMAP
00038000
0003C000
0007E000
000FE000
000FF000
001FF000
001EF800
003E7C00
007C7C00
00783E00
00F81E00
00F01F00
01F00F80
03E00780
03C7FFC0
07C7FFE0
0F8FFFE0
0F0001F0
1F0000F0
1E0000F8
3E00007C
7C00007C
F800003E
00000004
00000018
00000030
00000070
0000007E
0000007E
0000003E
ENDCHAR
STARTCHAR aogonek
ENCODING 261
SWIDTH 989 0
DWIDTH 32 0
BBX 31 30 0 -7
BITMAP
00038000
0003C000
0007E000
000FE000
000FF000
001FF000
001EF800
003E7C00
007C7C00
00783E00
00F81E00
00F01F00
01F00F80
03E00780
03C7FFC0
07C7FFE0
0F8FFFE0
0F0001F0
1F0000F0
1E0000F8
3E00007C
7C00007C
F800003E
00000004
00000018
00000030
00000070
0000007E
0000007E
0000003E
ENDCHAR
STARTCHAR Cacute
ENCODING 262
SWIDTH 829 0
DWIDTH 27 0
BBX 24 29 1 0
BITMAP
000020
0001E0
000FE0
001F00
002000
000000
00FFFF
03FFFF
0FFFFF
1FFFFF
3F8000
3E0000
7C0000
780000
780000
F80000
F00000
F00000
F00000
780000
780000
780000
7C0000
3E0000
1F8000
1FFFFF
0FFFFF
03FFFF
00FFFF
ENDCHAR
STARTCHAR cacute
ENCODING 263
SWIDTH 829 0
DWIDTH 27 0
BBX 24 29 1 0
BITMAP
000020
0001E0
000FE0
001F00
002000
000000
00FFFF
03FFFF
0FFFFF
1FFFFF
3F8000
3E0000
7C0000
780000
780000
F80000
F00000
F00000
F00000
780000
780000
780000
7C0000
3E0000
1F8000
1FFFFF
0FFFFF
03FFFF
00FFFF
ENDCHAR
STARTCHAR Cdotaccent
ENCODING 266
SWIDTH 829 0
DWIDTH 27 0
BBX 24 28 1 0
BITMAP
000600
000700
000600
000000
000000
00FFFF
03FFFF
0FFFFF
1FFFFF
3F8000
3E0000
7C0000
780000
780000
F80000
F00000
F00000
F00000
780000
780000
780000
7C0000
3E0000
1F8000
1FFFFF
0FFFFF
03FFFF
00FFFF
ENDCHAR
STARTCHAR cdotaccent
ENCODING 267
SWIDTH 829 0
DWIDTH 27 0
BBX 24 28 1 0
BITMAP
000600
000700
000600
000000
000000
00FFFF
03FFFF
0FFFFF
1FFFFF
3F8000
3E0000
7C0000
780000
780000
F80000
F00000
F00000
F00000
780000
780000
780000
7C0000
3E0000
1F8000
1FFFFF
0FFFFF
03FFFF
00FFFF
ENDCHAR
STARTCHAR Ccaron
ENCODING 268
SWIDTH 829 0
DWIDTH 27 0
BBX 24 29 1 0
BITMAP
0070C0
003980
001B80
000F00
000000
000000
00FFFF
03FFFF
0FFFFF
1FFFFF
3F8000
3E0000
7C0000
780000
780000
F80000
F00000
F00000
F00000
780000
780000
780000
7C0000
3E0000
1F8000
1FFFFF
0FFFFF
03FFFF
00FFFF
ENDCHAR
STARTCHAR ccaron
ENCODING 269
SWIDTH 829 0
DWIDTH 27 0
BBX 24 29 1 0
BITMAP
0070C0
003980
001B80
000F00
000000
000000
00FFFF
03FFFF
0FFFFF
1FFFFF
3F8000
3E0000
7C0000
780000
780000
F80000
F00000
F00000
F00000
780000
780000
780000
7C0000
3E0000
1F8000
1FFFFF
0FFFFF
03FFFF
00FFFF
ENDCHAR
STARTCHAR Dcaron
ENCODING 270
SWIDTH 879 0
DWIDTH 28 0
BBX 25 29 2 0
BITMAP
03860000
01CC0000
00D80000
00780000
00000000
00000000
FFFF8000
FFFFE000
FFFFF800
FFFFFC00
F000FE00
F0003E00
F0001F00
F0000F00
F0000F80
F0000780
F0000780
F0000780
F0000780
F0000F80
F0000F00
F0000F00
F0001F00
F0003E00
F000FE00
FFFFFC00
FFFFF800
FFFFE000
FFFF8000
ENDCHAR
STARTCHAR dcaron
ENCODING 271
SWIDTH 879 0
DWIDTH 28 0
BBX 25 29 2 0
BITMAP
03860000
01CC0000
00D80000
00780000
00000000
00000000
FFFF8000
FFFFE000
FFFFF800
FFFFFC00
F000FE00
F0003E00
F0001F00
F0000F00
F0000F80
F0000780
F0000780
F0000780
F0000780
F0000F80
F0000F00
F0000F00
F0001F00
F0003E00
F000FE00
FFFFFC00
FFFFF800
FFFFE000
FFFF8000
ENDCHAR
STARTCHAR Dcroat
ENCODING 272
SWIDTH 877 0
DWIDTH 28 0
BBX 27 23 0 0
BITMAP
3FFFE000
3FFFF800
3FFFFE00
3FFFFF00
3C003F80
3C000F80
3C0007C0
3C0003C0
3C0003C0
3C0003E0
FFFE01E0
FFFE01E0
FFFE01E0
3C0003E0
3C0003C0
3C0003C0
3C0007C0
3C000F80
3C003F80
3FFFFF00
3FFFFE00
3FFFF800
3FFFE000
ENDCHAR
STARTCHAR dcroat
ENCODING 273
SWIDTH 877 0
DWIDTH 28 0
BBX 27 23 0 0
BITMAP
3FFFE000
3FFFF800
3FFFFE00
3FFFFF00
3C003F80
3C000F80
3C0007C0
3C0003C0
3C0003C0
3C0003E0
FFFE01E0
FFFE01E0
FFFE01E0
3C0003E0
3C0003C0
3C0003C0
3C0007C0
3C000F80
3C003F80
3FFFFF00
3FFFFE00
3FFFF800
3FFFE000
ENDCHAR
STARTCHAR Emacron
ENCODING 274
SWIDTH 759 0
DWIDTH 24 0
BBX 21 28 2 0
BITMAP
03FC00
03FC00
000000
000000
000000
FFFFF8
FFFFF8
FFFFF8
FFFFF8
F00000
F00000
F00000
F00000
F00000
F00000
F1FFF0
F1FFF0
F1FFF0
F00000
F00000
F00000
F00000
F00000
F00000
FFFFF8
FFFFF8
FFFFF8
FFFFF8
ENDCHAR
STARTCHAR emacron
ENCODING 275
SWIDTH 759 0
DWIDTH 24 0
BBX 21 28 2 0
BITMAP
03FC00
03FC00
000000
000000
000000
FFFFF8
FFFFF8
FFFFF8
FFFFF8
F00000
F00000
F00000
F00000
F00000
F00000
F1FFF0
F1FFF0
F1FFF0
F00000
F00000
F00000
F00000
F00000
F00000
FFFFF8
FFFFF8
FFFFF8
FFFFF8
ENDCHAR
STARTCHAR Ebreve
ENCODING 276
SWIDTH 759 0
DWIDTH 24 0
BBX 21 29 2 0
BITMAP
030E00
030C00
038C00
01F800
000000
000000
FFFFF8
FFFFF8
FFFFF8
FFFFF8
F00000
F00000
F00000
F00000
F00000
F00000
F1FFF0
F1FFF0
F1FFF0
F00000
F00000
F00000
F00000
F00000
F00000
FFFFF8
FFFFF8
FFFFF8
FFFFF8
ENDCHAR
STARTCHAR ebreve
ENCODING 277
SWIDTH 759 0
DWIDTH 24 0
BBX 21 29 2 0
BITMAP
030E00
030C00
038C00
01F800
000000
000000
FFFFF8
FFFFF8
FFFFF8
FFFFF8
F00000
F00000
F00000
F00000
F00000
F00000
F1FFF0
F1FFF0
F1FFF0
F00000
F00000
F00000
F00000
F00000
F00000
FFFFF8
FFFFF8
FFFFF8
FFFFF8
ENDCHAR
STARTCHAR Edotaccent
ENCODING 278
SWIDTH 759 0
DWIDTH 24 0
BBX 21 28 2 0
BITMAP
006000
00F000
006000
000000
000000
FFFFF8
FFFFF8
FFFFF8
FFFFF8
F00000
F00000
F00000
F00000
F00000
F00000
F1FFF0
F1FFF0
F1FFF0
F00000
F00000
F00000
F00000
F00000
F00000
FFFFF8
FFFFF8
FFFFF8
FFFFF8
ENDCHAR
STARTCHAR edotaccent
ENCODING 279
SWIDTH 759 0
DWIDTH 24 0
BBX 21 28 2 0
BITMAP
006000
00F000
006000
000000
000000
FFFFF8
FFFFF8
FFFFF8
FFFFF8
F00000
F00000
F00000
F00000
F00000
F00000
F1FFF0
F1FFF0
F1FFF0
F00000
F00000
F00000
F00000
F00000
F00000
FFFFF8
FFFFF8
FFFFF8
FFFFF8
ENDCHAR
STARTCHAR Eogonek
ENCODING 280
SWIDTH 759 0
DWIDTH 24 0
BBX 21 30 2 -7
BITMAP
FFFFF8
FFFFF8
FFFFF8
FFFFF8
F00000
F00000
F00000
F00000
F00000
F00000
F1FFF0
F1FFF0
F1FFF0
F00000
F00000
F00000
F00000
F00000
F00000
FFFFF8
FFFFF8
FFFFF8
FFFFF8
000030
000060
000180
000180
0001F8
0001F8
0000F8
ENDCHAR
STARTCHAR eogonek
ENCODING 281
SWIDTH 759 0
DWIDTH 24 0
BBX 21 30 2 -7
BITMAP
FFFFF8
FFFFF8
FFFFF8
FFFFF8
F00000
F00000
F00000
F00000
F00000
F00000
F1FFF0
F1FFF0
F1FFF0
F00000
F00000
F00000
F00000
F00000
F00000
FFFFF8
FFFFF8
FFFFF8
FFFFF8
000030
000060
000180
000180
0001F8
0001F8
0000F8
ENDCHAR
STARTCHAR Ecaron
ENCODING 282
SWIDTH 759 0
DWIDTH 24 0
BBX 21 29 2 0
BITMAP
030E00
019C00
01D800
00F000
000000
000000
FFFFF8
FFFFF8
FFFFF8
FFFFF8
F00000
F00000
F00000
F00000
F00000
F00000
F1FFF0
F1FFF0
F1FFF0
F00000
F00000
F00000
F00000
F00000
F00000
FFFFF8
FFFFF8
FFFFF8
FFFFF8
ENDCHAR
STARTCHAR ecaron
ENCODING 283
SWIDTH 759 0
DWIDTH 24 0
BBX 21 29 2 0
BITMAP
030E00
019C00
01D800
00F000
000000
000000
FFFFF8
FFFFF8
FFFFF8
FFFFF8
F00000
F00000
F00000
F00000
F00000
F00000
F1FFF0
F1FFF0
F1FFF0
F00000
F00000
F00000
F00000
F00000
F00000
FFFFF8
FFFFF8
FFFFF8
FFFFF8
ENDCHAR
STARTCHAR Gbreve
ENCODING 286
SWIDTH 888 0
DWIDTH 28 0
BBX 26 29 1 0
BITMAP
0030E000
0030C000
0038C000
001F8000
00000000
00000000
00FFFF00
03FFFF00
0FFFFF00
1FFFFF00
3F800000
3E000000
7C000000
78000000
78000000
F8000000
F01FFFC0
F01FFFC0
F01FFFC0
780003C0
780003C0
780003C0
7C0003C0
3E0003C0
1F8003C0
1FFFFFC0
0FFFFFC0
03FFFFC0
00FFFFC0
ENDCHAR
STARTCHAR gbreve
ENCODING 287
SWIDTH 888 0
DWIDTH 28 0
BBX 26 29 1 0
BITMAP
0030E000
0030C000
0038C000
001F8000
00000000
00000000
00FFFF00
03FFFF00
0FFFFF00
1FFFFF00
3F800000
3E000000
7C000000
78000000
78000000
F8000000
F01FFFC0
F01FFFC0
F01FFFC0
780003C0
780003C0
780003C0
7C0003C0
3E0003C0
1F8003C0
1FFFFFC0
0FFFFFC0
03FFFFC0
00FFFFC0
ENDCHAR
STARTCHAR Gdotaccent
ENCODING 288
SWIDTH 888 0
DWIDTH 28 0
BBX 26 28 1 0
BITMAP
00070000
00070000
00070000
00000000
00000000
00FFFF00
03FFFF00
0FFFFF00
1FFFFF00
3F800000
3E000000
7C000000
78000000
78000000
F8000000
F01FFFC0
F01FFFC0
F01FFFC0
780003C0
780003C0
780003C0
7C0003C0
3E0003C0
1F8003C0
1FFFFFC0
0FFFFFC0
03FFFFC0
00FFFFC0
ENDCHAR
STARTCHAR gdotaccent
ENCODING 289
SWIDTH 888 0
DWIDTH 28 0
BBX 26 28 1 0
BITMAP
00070000
00070000
00070000
00000000
00000000
00FFFF00
03FFFF00
0FFFFF00
1FFFFF00
3F800000
3E000000
7C000000
78000000
78000000
F8000000
F01FFFC0
F01FFFC0
F01FFFC0
780003C0
780003C0
780003C0
7C0003C0
3E0003C0
1F8003C0
1FFFFFC0
0FFFFFC0
03FFFFC0
00FFFFC0
ENDCHAR
STARTCHAR Gcommaaccent
ENCODING 290
SWIDTH 888 0
DWIDTH 28 0
BBX 26 29 1 -6
BITMAP
00FFFF00
03FFFF00
0FFFFF00
1FFFFF00
3F800000
3E000000
7C000000
78000000
78000000
F8000000
F01FFFC0
F01FFFC0
F01FFFC0
780003C0
780003C0
780003C0
7C0003C0
3E0003C0
1F8003C0
1FFFFFC0
0FFFFFC0
03FFFFC0
00FFFFC0
00000000
001F0000
000E0000
000E0000
00040000
00040000
ENDCHAR
STARTCHAR gcommaaccent
ENCODING 291
SWIDTH 888 0
DWIDTH 28 0
BBX 26 29 1 -6
BITMAP
00FFFF00
03FFFF00
0FFFFF00
1FFFFF00
3F800000
3E000000
7C000000
78000000
78000000
F8000000
F01FFFC0
F01FFFC0
F01FFFC0
780003C0
780003C0
780003C0
7C0003C0
3E0003C0
1F8003C0
1FFFFFC0
0FFFFFC0
03FFFFC0
00FFFFC0
00000000
001F0000
000E0000
000E0000
00040000
00040000
ENDCHAR
STARTCHAR Hbar
ENCODING 294
SWIDTH 838 0
DWIDTH 27 0
BBX 23 23 2 0
BITMAP
F0001E
F0001E
F0001E
F0001E
F1FFFE
F1FFFE
F0001E
F0001E
F0001E
F1FFFE
F1FFFE
F1FFFE
F1FFFE
F0001E
F0001E
F0001E
F0001E
F0001E
F0001E
F0001E
F0001E
F0001E
F0001E
ENDCHAR
STARTCHAR hbar
ENCODING 295
SWIDTH 838 0
DWIDTH 27 0
BBX 23 23 2 0
BITMAP
F0001E
F0001E
F0001E
F0001E
F1FFFE
F1FFFE
F0001E
F0001E
F0001E
F1FFFE
F1FFFE
F1FFFE
F1FFFE
F0001E
F0001E
F0001E
F0001E
F0001E
F0001E
F0001E
F0001E
F0001E
F0001E
ENDCHAR
STARTCHAR uni012A
ENCODING 298
SWIDTH 267 0
DWIDTH 9 0
BBX 8 28 0 0
BITMAP
FF
FF
00
00
00
3C
3C
3C
3C
3C
3C
3C
3C
3C
3C
3C
3C
3C
3C
3C
3C
3C
3C
3C
3C
3C
3C
3C
ENDCHAR
STARTCHAR imacron
ENCODING 299
SWIDTH 267 0
DWIDTH 9 0
BBX 8 28 0 0
BITMAP
FF
FF
00
00
00
3C
3C
3C
3C
3C
3C
3C
3C
3C
3C
3C
3C
3C
3C
3C
3C
3C
3C
3C
3C
3C
3C
3C
ENDCHAR
STARTCHAR Ibreve
ENCODING 300
SWIDTH 267 0
DWIDTH 9 0
BBX 9 29 0 0
BITMAP
C380
C380
6300
7E00
0000
0000
3C00
3C00
3C00
3C00
3C00
3C00
3C00
3C00
3C00
3C00
3C00
3C00
3C00
3C00
3C00
3C00
3C00
3C00
3C00
3C00
3C00
3C00
3C00
ENDCHAR
STARTCHAR ibreve
ENCODING 301
SWIDTH 267 0
DWIDTH 9 0
BBX 9 29 0 0
BITMAP
C380
C380
6300
7E00
0000
0000
3C00
3C00
3C00
3C00
3C00
3C00
3C00
3C00
3C00
3C00
3C00
3C00
3C00
3C00
3C00
3C00
3C00
3C00
3C00
3C00
3C00
3C00
3C00
ENDCHAR
STARTCHAR Iogonek
ENCODING 302
SWIDTH 267 0
DWIDTH 9 0
BBX 6 30 0 -7
BITMAP
3C
3C
3C
3C
3C
3C
3C
3C
3C
3C
3C
3C
3C
3C
3C
3C
3C
3C
3C
3C
3C
3C
3C
0C
30
60
E0
FC
7C
3C
ENDCHAR
STARTCHAR iogonek
ENCODING 303
SWIDTH 267 0
DWIDTH 9 0
BBX 6 30 0 -7
BITMAP
3C
3C
3C
3C
3C
3C
3C
3C
3C
3C
3C
3C
3C
3C
3C
3C
3C
3C
3C
3C
3C
3C
3C
0C
30
60
E0
FC
7C
3C
ENDCHAR
STARTCHAR Idotaccent
ENCODING 304
SWIDTH 267 0
DWIDTH 9 0
BBX 4 28 2 0
BITMAP
60
70
70
00
00
F0
F0
F0
F0
F0
F0
F0
F0
F0
F0
F0
F0
F0
F0
F0
F0
F0
F0
F0
F0
F0
F0
F0
ENDCHAR
STARTCHAR dotlessi
ENCODING 305
SWIDTH 267 0
DWIDTH 9 0
BBX 4 23 2 0
BITMAP
F0
F0
F0
F0
F0
F0
F0
F0
F0
F0
F0
F0
F0
F0
F0
F0
F0
F0
F0
F0
F0
F0
F0
ENDCHAR
STARTCHAR IJ
ENCODING 306
SWIDTH 975 0
DWIDTH 31 0
BBX 28 23 2 0
BITMAP
F00001F0
F00001F0
F00001F0
F00001F0
F00001F0
F00001F0
F00001F0
F00001F0
F00001F0
F00001F0
F00001F0
F00001F0
F00001F0
F00001F0
F00001E0
F00001E0
F00003E0
F00003E0
F0000FC0
F1FFFFC0
F1FFFF80
F1FFFE00
F1FFF000
ENDCHAR
STARTCHAR ij
ENCODING 307
SWIDTH 975 0
DWIDTH 31 0
BBX 28 23 2 0
BITMAP
F00001F0
F00001F0
F00001F0
F00001F0
F00001F0
F00001F0
F00001F0
F00001F0
F00001F0
F00001F0
F00001F0
F00001F0
F00001F0
F00001F0
F00001E0
F00001E0
F00003E0
F00003E0
F0000FC0
F1FFFFC0
F1FFFF80
F1FFFE00
F1FFF000
ENDCHAR
STARTCHAR Kcommaaccent
ENCODING 310
SWIDTH 875 0
DWIDTH 28 0
BBX 25 29 2 -6
BITMAP
F0003F80
F0007E00
F001FC00
F003F000
F007E000
F01FC000
F03F0000
F07E0000
F1FC0000
F3F00000
F7E00000
F7C00000
F3E00000
F1F80000
F0FC0000
F03E0000
F01F8000
F00FC000
F007E000
F001F800
F000FC00
F0007E00
F0001F80
00000000
003C0000
00180000
00180000
00180000
00100000
ENDCHAR
STARTCHAR kcommaaccent
ENCODING 311
SWIDTH 875 0
DWIDTH 28 0
BBX 25 29 2 -6
BITMAP
F0003F80
F0007E00
F001FC00
F003F000
F007E000
F01FC000
F03F0000
F07E0000
F1FC0000
F3F00000
F7E00000
F7C00000
F3E00000
F1F80000
F0FC0000
F03E0000
F01F8000
F00FC000
F007E000
F001F800
F000FC00
F0007E00
F0001F80
00000000
003C0000
00180000
00180000
00180000
00100000
ENDCHAR
STARTCHAR Lacute
ENCODING 313
SWIDTH 707 0
DWIDTH 23 0
BBX 21 29 1 0
BITMAP
010000
0F0000
7F0000
F80000
800000
000000
780000
780000
780000
780000
780000
780000
780000
780000
780000
780000
780000
780000
780000
780000
780000
780000
780000
780000
780000
7FFFF8
7FFFF8
7FFFF8
7FFFF8
ENDCHAR
STARTCHAR lacute
ENCODING 314
SWIDTH 707 0
DWIDTH 23 0
BBX 21 29 1 0
BITMAP
010000
0F0000
7F0000
F80000
800000
000000
780000
780000
780000
780000
780000
780000
780000
780000
780000
780000
780000
780000
780000
780000
780000
780000
780000
780000
780000
7FFFF8
7FFFF8
7FFFF8
7FFFF8
ENDCHAR
STARTCHAR Lcommaaccent
ENCODING 315
SWIDTH 707 0
DWIDTH 23 0
BBX 20 29 2 -6
BITMAP
F00000
F00000
F00000
F00000
F00000
F00000
F00000
F00000
F00000
F00000
F00000
F00000
F00000
F00000
F00000
F00000
F00000
F00000
F00000
FFFFF0
FFFFF0
FFFFF0
FFFFF0
000000
00F000
00E000
006000
004000
004000
ENDCHAR
STARTCHAR lcommaaccent
ENCODING 316
SWIDTH 707 0
DWIDTH 23 0
BBX 20 29 2 -6
BITMAP
F00000
F00000
F00000
F00000
F00000
F00000
F00000
F00000
F00000
F00000
F00000
F00000
F00000
F00000
F00000
F00000
F00000
F00000
F00000
FFFFF0
FFFFF0
FFFFF0
FFFFF0
000000
00F000
00E000
006000
004000
004000
ENDCHAR
STARTCHAR Lcaron
ENCODING 317
SWIDTH 707 0
DWIDTH 23 0
BBX 20 23 2 0
BITMAP
F0F000
F0F000
F0F000
F0E000
F0E000
F0E000
F0E000
F0E000
F00000
F00000
F00000
F00000
F00000
F00000
F00000
F00000
F00000
F00000
F00000
FFFFF0
FFFFF0
FFFFF0
FFFFF0
ENDCHAR
STARTCHAR lcaron
ENCODING 318
SWIDTH 707 0
DWIDTH 23 0
BBX 20 23 2 0
BITMAP
F0F000
F0F000
F0F000
F0E000
F0E000
F0E000
F0E000
F0E000
F00000
F00000
F00000
F00000
F00000
F00000
F00000
F00000
F00000
F00000
F00000
FFFFF0
FFFFF0
FFFFF0
FFFFF0
ENDCHAR
STARTCHAR Ldot
ENCODING 319
SWIDTH 707 0
DWIDTH 23 0
BBX 20 23 2 0
BITMAP
F00000
F00000
F00000
F00000
F00000
F00000
F00000
F00000
F00000
F00000
F0C000
F1C000
F1C000
F00000
F00000
F00000
F00000
F00000
F00000
FFFFF0
FFFFF0
FFFFF0
FFFFF0
ENDCHAR
STARTCHAR ldot
ENCODING 320
SWIDTH 707 0
DWIDTH 23 0
BBX 20 23 2 0
BITMAP
F00000
F00000
F00000
F00000
F00000
F00000
F00000
F00000
F00000
F00000
F0C000
F1C000
F1C000
F00000
F00000
F00000
F00000
F00000
F00000
FFFFF0
FFFFF0
FFFFF0
FFFFF0
ENDCHAR
STARTCHAR Lslash
ENCODING 321
SWIDTH 707 0
DWIDTH 23 0
BBX 20 23 2 0
BITMAP
F00000
F00000
F00000
F00000
F00000
F00000
F00000
F01800
F07800
F3F800
FFF000
FFC000
FE0000
F80000
F00000
F00000
F00000
F00000
F00000
FFFFF0
FFFFF0
FFFFF0
FFFFF0
ENDCHAR
STARTCHAR lslash
ENCODING 322
SWIDTH 707 0
DWIDTH 23 0
BBX 20 23 2 0
BITMAP
F00000
F00000
F00000
F00000
F00000
F00000
F00000
F01800
F07800
F3F800
FFF000
FFC000
FE0000
F80000
F00000
F00000
F00000
F00000
F00000
FFFFF0
FFFFF0
FFFFF0
FFFFF0
ENDCHAR
STARTCHAR Nacute
ENCODING 323
SWIDTH 873 0
DWIDTH 28 0
BBX 24 29 2 0
BITMAP
000080
000780
003F80
007C00
004000
000000
60000F
F0000F
F8000F
FE000F
FF000F
FF800F
FFC00F
F7E00F
F3F00F
F1F80F
F0FC0F
F07E0F
F03F0F
F01F8F
F00FCF
F007EF
F003FF
F001FF
F000FF
F0007F
F0003F
F0001F
F00006
ENDCHAR
STARTCHAR nacute
ENCODING 324
SWIDTH 873 0
DWIDTH 28 0
BBX 24 29 2 0
BITMAP
000080
000780
003F80
007C00
004000
000000
60000F
F0000F
F8000F
FE000F
FF000F
FF800F
FFC00F
F7E00F
F3F00F
F1F80F
F0FC0F
F07E0F
F03F0F
F01F8F
F00FCF
F007EF
F003FF
F001FF
F000FF
F0007F
F0003F
F0001F
F00006
ENDCHAR
STARTCHAR Ncommaaccent
ENCODING 325
SWIDTH 873 0
DWIDTH 28 0
BBX 24 29 2 -6
BITMAP
60000F
F0000F
F8000F
FE000F
FF000F
FF800F
FFC00F
F7E00F
F3F00F
F1F80F
F0FC0F
F07E0F
F03F0F
F01F8F
F00FCF
F007EF
F003FF
F001FF
F000FF
F0007F
F0003F
F0001F
F00006
000000
003C00
003800
001800
001800
001000
ENDCHAR
STARTCHAR ncommaaccent
ENCODING 326
SWIDTH 873 0
DWIDTH 28 0
BBX 24 29 2 -6
BITMAP
60000F
F0000F
F8000F
FE000F
FF000F
FF800F
FFC00F
F7E00F
F3F00F
F1F80F
F0FC0F
F07E0F
F03F0F
F01F8F
F00FCF
F007EF
F003FF
F001FF
F000FF
F0007F
F0003F
F0001F
F00006
000000
003C00
003800
001800
001800
001000
ENDCHAR
STARTCHAR Ncaron
ENCODING 327
SWIDTH 873 0
DWIDTH 28 0
BBX 24 29 2 0
BITMAP
00C300
006600
006E00
003C00
000000
000000
60000F
F0000F
F8000F
FE000F
FF000F
FF800F
FFC00F
F7E00F
F3F00F
F1F80F
F0FC0F
F07E0F
F03F0F
F01F8F
F00FCF
F007EF
F003FF
F001FF
F000FF
F0007F
F0003F
F0001F
F00006
ENDCHAR
STARTCHAR ncaron
ENCODING 328
SWIDTH 873 0
DWIDTH 28 0
BBX 24 29 2 0
BITMAP
00C300
006600
006E00
003C00
000000
000000
60000F
F0000F
F8000F
FE000F
FF000F
FF800F
FFC00F
F7E00F
F3F00F
F1F80F
F0FC0F
F07E0F
F03F0F
F01F8F
F00FCF
F007EF
F003FF
F001FF
F000FF
F0007F
F0003F
F0001F
F00006
ENDCHAR
STARTCHAR Eng
ENCODING 330
SWIDTH 873 0
DWIDTH 28 0
BBX 24 29 2 -6
BITMAP
60000F
F0000F
F8000F
FE000F
FF000F
FF800F
FFC00F
F7E00F
F3F00F
F1F80F
F0FC0F
F07E0F
F03F0F
F01F8F
F00FCF
F007EF
F003FF
F001FF
F000FF
F0007F
F0003F
F0001F
F0001F
00003F
0000FE
007FFC
007FF8
007FF0
007F80
ENDCHAR
STARTCHAR eng
ENCODING 331
SWIDTH 873 0
DWIDTH 28 0
BBX 24 29 2 -6
BITMAP
60000F
F0000F
F8000F
FE000F
FF000F
FF800F
FFC00F
F7E00F
F3F00F
F1F80F
F0FC0F
F07E0F
F03F0F
F01F8F
F00FCF
F007EF
F003FF
F001FF
F000FF
F0007F
F0003F
F0001F
F0001F
00003F
0000FE
007FFC
007FF8
007FF0
007F80
ENDCHAR
STARTCHAR Omacron
ENCODING 332
SWIDTH 968 0
DWIDTH 31 0
BBX 29 28 1 0
BITMAP
003FE000
003FE000
00000000
00000000
00000000
00FFF800
03FFFE00
0FFFFF80
1FFFFFC0
3F800FE0
3E0003E0
7C0001F0
780000F0
780000F0
F80000F8
F0000078
F0000078
F0000078
780000F8
780000F0
780000F0
7C0001F0
3E0003E0
1F800FC0
1FFFFFC0
0FFFFF80
03FFFE00
00FFF800
ENDCHAR
STARTCHAR omacron
ENCODING 333
SWIDTH 968 0
DWIDTH 31 0
BBX 29 28 1 0
BITMAP
003FE000
003FE000
00000000
00000000
00000000
00FFF800
03FFFE00
0FFFFF80
1FFFFFC0
3F800FE0
3E0003E0
7C0001F0
780000F0
780000F0
F80000F8
F0000078
F0000078
F0000078
780000F8
780000F0
780000F0
7C0001F0
3E0003E0
1F800FC0
1FFFFFC0
0FFFFF80
03FFFE00
00FFF800
ENDCHAR
STARTCHAR Obreve
ENCODING 334
SWIDTH 968 0
DWIDTH 31 0
BBX 29 29 1 0
BITMAP
00306000
0030E000
0018C000
000F8000
00000000
00000000
00FFF800
03FFFE00
0FFFFF80
1FFFFFC0
3F800FE0
3E0003E0
7C0001F0
780000F0
780000F0
F80000F8
F0000078
F0000078
F0000078
780000F8
780000F0
780000F0
7C0001F0
3E0003E0
1F800FC0
1FFFFFC0
0FFFFF80
03FFFE00
00FFF800
ENDCHAR
STARTCHAR obreve
ENCODING 335
SWIDTH 968 0
DWIDTH 31 0
BBX 29 29 1 0
BITMAP
00306000
0030E000
0018C000
000F8000
00000000
00000000
00FFF800
03FFFE00
0FFFFF80
1FFFFFC0
3F800FE0
3E0003E0
7C0001F0
780000F0
780000F0
F80000F8
F0000078
F0000078
F0000078
780000F8
780000F0
780000F0
7C0001F0
3E0003E0
1F800FC0
1FFFFFC0
0FFFFF80
03FFFE00
00FFF800
ENDCHAR
STARTCHAR Ohungarumlaut
ENCODING 336
SWIDTH 968 0
DWIDTH 31 0
BBX 29 29 1 0
BITMAP
000E7000
000C6000
001C6000
0018C000
00000000
00000000
00FFF800
03FFFE00
0FFFFF80
1FFFFFC0
3F800FE0
3E0003E0
7C0001F0
780000F0
780000F0
F80000F8
F0000078
F0000078
F0000078
780000F8
780000F0
780000F0
7C0001F0
3E0003E0
1F800FC0
1FFFFFC0
0FFFFF80
03FFFE00
00FFF800
ENDCHAR
STARTCHAR ohungarumlaut
ENCODING 337
SWIDTH 968 0
DWIDTH 31 0
BBX 29 29 1 0
BITMAP
000E7000
000C6000
001C6000
0018C000
00000000
00000000
00FFF800
03FFFE00
0FFFFF80
1FFFFFC0
3F800FE0
3E0003E0
7C0001F0
780000F0
780000F0
F80000F8
F0000078
F0000078
F0000078
780000F8
780000F0
780000F0
7C0001F0
3E0003E0
1F800FC0
1FFFFFC0
0FFFFF80
03FFFE00
00FFF800
ENDCHAR
STARTCHAR OE
ENCODING 338
SWIDTH 1304 0
DWIDTH 42 0
BBX 39 23 1 0
BITMAP
00FFFFFFFE
03FFFFFFFE
0FFFFFFFFE
1FFFFFFFFE
3F801E0000
3E001E0000
7C001E0000
78001E0000
78001E0000
F8001E0000
F0001E3FFC
F0001E3FFC
F0001E3FFC
78001E0000
78001E0000
78001E0000
7C001E0000
3E001E0000
1F801E0000
1FFFFFFFFE
0FFFFFFFFE
03FFFFFFFE
00FFFFFFFE
ENDCHAR
STARTCHAR oe
ENCODING 339
SWIDTH 1304 0
DWIDTH 42 0
BBX 39 23 1 0
BITMAP
00FFFFFFFE
03FFFFFFFE
0FFFFFFFFE
1FFFFFFFFE
3F801E0000
3E001E0000
7C001E0000
78001E0000
78001E0000
F8001E0000
F0001E3FFC
F0001E3FFC
F0001E3FFC
78001E0000
78001E0000
78001E0000
7C001E0000
3E001E0000
1F801E0000
1FFFFFFFFE
0FFFFFFFFE
03FFFFFFFE
00FFFFFFFE
ENDCHAR
STARTCHAR Racute
ENCODING 340
SWIDTH 921 0
DWIDTH 29 0
BBX 27 29 2 0
BITMAP
00008000
00078000
007F8000
00F80000
00800000
00000000
FFFFF000
FFFFFC00
FFFFFE00
FFFFFF00
F0001F00
F0000F80
F0000780
F0000780
F0000780
F0000780
F0000780
F0000F80
F0001F00
F1FFFF00
F1FFFE00
F1FFFC00
F1FFF800
F000FC00
F0007E00
F0003F00
F0001F80
F0000FC0
F00007E0
ENDCHAR
STARTCHAR racute
ENCODING 341
SWIDTH 921 0
DWIDTH 29 0
BBX 27 29 2 0
BITMAP
00008000
00078000
007F8000
00F80000
00800000
00000000
FFFFF000
FFFFFC00
FFFFFE00
FFFFFF00
F0001F00
F0000F80
F0000780
F0000780
F0000780
F0000780
F0000780
F0000F80
F0001F00
F1FFFF00
F1FFFE00
F1FFFC00
F1FFF800
F000FC00
F0007E00
F0003F00
F0001F80
F0000FC0
F00007E0
ENDCHAR
STARTCHAR Rcommaaccent
ENCODING 342
SWIDTH 921 0
DWIDTH 29 0
BBX 27 29 2 -6
BITMAP
FFFFF000
FFFFFC00
FFFFFE00
FFFFFF00
F0001F00
F0000F80
F0000780
F0000780
F0000780
F0000780
F0000780
F0000F80
F0001F00
F1FFFF00
F1FFFE00
F1FFFC00
F1FFF800
F000FC00
F0007E00
F0003F00
F0001F80
F0000FC0
F00007E0
00000000
001E0000
001C0000
000C0000
00080000
00080000
ENDCHAR
STARTCHAR rcommaaccent
ENCODING 343
SWIDTH 921 0
DWIDTH 29 0
BBX 27 29 2 -6
BITMAP
FFFFF000
FFFFFC00
FFFFFE00
FFFFFF00
F0001F00
F0000F80
F0000780
F0000780
F0000780
F0000780
F0000780
F0000F80
F0001F00
F1FFFF00
F1FFFE00
F1FFFC00
F1FFF800
F000FC00
F0007E00
F0003F00
F0001F80
F0000FC0
F00007E0
00000000
001E0000
001C0000
000C0000
00080000
00080000
ENDCHAR
STARTCHAR Rcaron
ENCODING 344
SWIDTH 921 0
DWIDTH 29 0
BBX 27 29 2 0
BITMAP
01C70000
00C60000
006C0000
00780000
00000000
00000000
FFFFF000
FFFFFC00
FFFFFE00
FFFFFF00
F0001F00
F0000F80
F0000780
F0000780
F0000780
F0000780
F0000780
F0000F80
F0001F00
F1FFFF00
F1FFFE00
F1FFFC00
F1FFF800
F000FC00
F0007E00
F0003F00
F0001F80
F0000FC0
F00007E0
ENDCHAR
STARTCHAR rcaron
ENCODING 345
SWIDTH 921 0
DWIDTH 29 0
BBX 27 29 2 0
BITMAP
01C70000
00C60000
006C0000
00780000
00000000
00000000
FFFFF000
FFFFFC00
FFFFFE00
FFFFFF00
F0001F00
F0000F80
F0000780
F0000780
F0000780
F0000780
F0000780
F0000F80
F0001F00
F1FFFF00
F1FFFE00
F1FFFC00
F1FFF800
F000FC00
F0007E00
F0003F00
F0001F80
F0000FC0
F00007E0
ENDCHAR
STARTCHAR Sacute
ENCODING 346
SWIDTH 880 0
DWIDTH 28 0
BBX 25 29 2 0
BITMAP
00008000
00078000
003F8000
007C0000
00400000
00000000
0FFFFF00
3FFFFF00
7FFFFF00
FFFFFF00
F8000000
F0000000
F0000000
F0000000
F0000000
F8000000
7FFFF800
3FFFFE00
0FFFFF00
00000F00
00000700
00000780
00000780
00000F80
00001F00
FFFFFF00
FFFFFE00
FFFFFC00
FFFFF800
ENDCHAR
STARTCHAR sacute
ENCODING 347
SWIDTH 880 0
DWIDTH 28 0
BBX 25 29 2 0
BITMAP
00008000
00078000
003F8000
007C0000
00400000
00000000
0FFFFF00
3FFFFF00
7FFFFF00
FFFFFF00
F8000000
F0000000
F0000000
F0000000
F0000000
F8000000
7FFFF800
3FFFFE00
0FFFFF00
00000F00
00000700
00000780
00000780
00000F80
00001F00
FFFFFF00
FFFFFE00
FFFFFC00
FFFFF800
ENDCHAR
STARTCHAR Scedilla
ENCODING 350
SWIDTH 880 0
DWIDTH 28 0
BBX 25 29 2 -6
BITMAP
0FFFFF00
3FFFFF00
7FFFFF00
FFFFFF00
F8000000
F0000000
F0000000
F0000000
F0000000
F8000000
7FFFF800
3FFFFE00
0FFFFF00
00000F00
00000700
00000780
00000780
00000F80
00001F00
FFFFFF00
FFFFFE00
FFFFFC00
FFFFF800
00000000
003C0000
001C0000
00180000
00180000
00080000
ENDCHAR
STARTCHAR scedilla
ENCODING 351
SWIDTH 880 0
DWIDTH 28 0
BBX 25 29 2 -6
BITMAP
0FFFFF00
3FFFFF00
7FFFFF00
FFFFFF00
F8000000
F0000000
F0000000
F0000000
F0000000
F8000000
7FFFF800
3FFFFE00
0FFFFF00
00000F00
00000700
00000780
00000780
00000F80
00001F00
FFFFFF00
FFFFFE00
FFFFFC00
FFFFF800
00000000
003C0000
001C0000
00180000
00180000
00080000
ENDCHAR
STARTCHAR Scaron
ENCODING 352
SWIDTH 880 0
DWIDTH 28 0
BBX 25 29 2 0
BITMAP
00C38000
00630000
00360000
003C0000
00000000
00000000
0FFFFF00
3FFFFF00
7FFFFF00
FFFFFF00
F8000000
F0000000
F0000000
F0000000
F0000000
F8000000
7FFFF800
3FFFFE00
0FFFFF00
00000F00
00000700
00000780
00000780
00000F80
00001F00
FFFFFF00
FFFFFE00
FFFFFC00
FFFFF800
ENDCHAR
STARTCHAR scaron
ENCODING 353
SWIDTH 880 0
DWIDTH 28 0
BBX 25 29 2 0
BITMAP
00C38000
00630000
00360000
003C0000
00000000
00000000
0FFFFF00
3FFFFF00
7FFFFF00
FFFFFF00
F8000000
F0000000
F0000000
F0000000
F0000000
F8000000
7FFFF800
3FFFFE00
0FFFFF00
00000F00
00000700
00000780
00000780
00000F80
00001F00
FFFFFF00
FFFFFE00
FFFFFC00
FFFFF800
ENDCHAR
STARTCHAR Tcommaaccent
ENCODING 354
SWIDTH 720 0
DWIDTH 23 0
BBX 21 29 1 -6
BITMAP
FFFFF8
FFFFF8
FFFFF8
FFFFF8
00F800
00F800
00F800
00F800
00F800
00F800
00F800
00F800
00F800
00F800
00F800
00F800
00F800
00F800
00F800
00F800
00F800
00F800
00F800
000000
00F800
007000
007000
002000
002000
ENDCHAR
STARTCHAR tcommaaccent
ENCODING 355
SWIDTH 720 0
DWIDTH 23 0
BBX 21 29 1 -6
BITMAP
FFFFF8
FFFFF8
FFFFF8
FFFFF8
00F800
00F800
00F800
00F800
00F800
00F800
00F800
00F800
00F800
00F800
00F800
00F800
00F800
00F800
00F800
00F800
00F800
00F800
00F800
000000
00F800
007000
007000
002000
002000
ENDCHAR
STARTCHAR Tcaron
ENCODING 356
SWIDTH 720 0
DWIDTH 23 0
BBX 21 29 1 0
BITMAP
038E00
018C00
00D800
007000
000000
000000
FFFFF8
FFFFF8
FFFFF8
FFFFF8
00F800
00F800
00F800
00F800
00F800
00F800
00F800
00F800
00F800
00F800
00F800
00F800
00F800
00F800
00F800
00F800
00F800
00F800
00F800
ENDCHAR
STARTCHAR tcaron
ENCODING 357
SWIDTH 720 0
DWIDTH 23 0
BBX 21 29 1 0
BITMAP
038E00
018C00
00D800
007000
000000
000000
FFFFF8
FFFFF8
FFFFF8
FFFFF8
00F800
00F800
00F800
00F800
00F800
00F800
00F800
00F800
00F800
00F800
00F800
00F800
00F800
00F800
00F800
00F800
00F800
00F800
00F800
ENDCHAR
STARTCHAR Tbar
ENCODING 358
SWIDTH 720 0
DWIDTH 23 0
BBX 21 23 1 0
BITMAP
FFFFF8
FFFFF8
FFFFF8
FFFFF8
00F800
00F800
00F800
00F800
00F800
00F800
00F800
00F800
07FF00
07FF00
07FF00
00F800
00F800
00F800
00F800
00F800
00F800
00F800
00F800
ENDCHAR
STARTCHAR tbar
ENCODING 359
SWIDTH 720 0
DWIDTH 23 0
BBX 21 23 1 0
BITMAP
FFFFF8
FFFFF8
FFFFF8
FFFFF8
00F800
00F800
00F800
00F800
00F800
00F800
00F800
00F800
07FF00
07FF00
07FF00
00F800
00F800
00F800
00F800
00F800
00F800
00F800
00F800
ENDCHAR
STARTCHAR Utilde
ENCODING 360
SWIDTH 889 0
DWIDTH 28 0
BBX 25 28 2 0
BITMAP
00708000
00FF0000
008F0000
00000000
00000000
F0000780
F0000780
F0000780
F0000780
F0000780
F0000780
F0000780
F0000780
F0000780
F0000780
F0000780
F0000780
F0000780
F0000780
F0000780
F0000F80
F8000F00
FC001F00
7F007E00
3FFFFE00
1FFFFC00
0FFFF000
01FFC000
ENDCHAR
STARTCHAR utilde
ENCODING 361
SWIDTH 889 0
DWIDTH 28 0
BBX 25 28 2 0
BITMAP
00708000
00FF0000
008F0000
00000000
00000000
F0000780
F0000780
F0000780
F0000780
F0000780
F0000780
F0000780
F0000780
F0000780
F0000780
F0000780
F0000780
F0000780
F0000780
F0000780
F0000F80
F8000F00
FC001F00
7F007E00
3FFFFE00
1FFFFC00
0FFFF000
01FFC000
ENDCHAR
STARTCHAR Umacron
ENCODING 362
SWIDTH 889 0
DWIDTH 28 0
BBX 25 28 2 0
BITMAP
00FF0000
00FF0000
00000000
00000000
00000000
F0000780
F0000780
F0000780
F0000780
F0000780
F0000780
F0000780
F0000780
F0000780
F0000780
F0000780
F0000780
F0000780
F0000780
F0000780
F0000F80
F8000F00
FC001F00
7F007E00
3FFFFE00
1FFFFC00
0FFFF000
01FFC000
ENDCHAR
STARTCHAR umacron
ENCODING 363
SWIDTH 889 0
DWIDTH 28 0
BBX 25 28 2 0
BITMAP
00FF0000
00FF0000
00000000
00000000
00000000
F0000780
F0000780
F0000780
F0000780
F0000780
F0000780
F0000780
F0000780
F0000780
F0000780
F0000780
F0000780
F0000780
F0000780
F0000780
F0000F80
F8000F00
FC001F00
7F007E00
3FFFFE00
1FFFFC00
0FFFF000
01FFC000
ENDCHAR
STARTCHAR Ubreve
ENCODING 364
SWIDTH 889 0
DWIDTH 28 0
BBX 25 29 2 0
BITMAP
00C38000
00C30000
00E30000
007E0000
00000000
00000000
F0000780
F0000780
F0000780
F0000780
F0000780
F0000780
F0000780
F0000780
F0000780
F0000780
F0000780
F0000780
F0000780
F0000780
F0000780
F0000F80
F8000F00
FC001F00
7F007E00
3FFFFE00
1FFFFC00
0FFFF000
01FFC000
ENDCHAR
STARTCHAR ubreve
ENCODING 365
SWIDTH 889 0
DWIDTH 28 0
BBX 25 29 2 0
BITMAP
00C38000
00C30000
00E30000
007E0000
00000000
00000000
F0000780
F0000780
F0000780
F0000780
F0000780
F0000780
F0000780
F0000780
F0000780
F0000780
F0000780
F0000780
F0000780
F0000780
F0000780
F0000F80
F8000F00
FC001F00
7F007E00
3FFFFE00
1FFFFC00
0FFFF000
01FFC000
ENDCHAR
STARTCHAR Uring
ENCODING 366
SWIDTH 889 0
DWIDTH 28 0
BBX 25 31 2 0
BITMAP
007E0000
00C30000
00810000
00810000
00430000
007E0000
00000000
00000000
F0000780
F0000780
F0000780
F0000780
F0000780
F0000780
F0000780
F0000780
F0000780
F0000780
F0000780
F0000780
F0000780
F0000780
F0000780
F0000F80
F8000F00
FC001F00
7F007E00
3FFFFE00
1FFFFC00
0FFFF000
01FFC000
ENDCHAR
STARTCHAR uring
ENCODING 367
SWIDTH 889 0
DWIDTH 28 0
BBX 25 31 2 0
BITMAP
007E0000
00C30000
00810000
00810000
00430000
007E0000
00000000
00000000
F0000780
F0000780
F0000780
F0000780
F0000780
F0000780
F0000780
F0000780
F0000780
F0000780
F0000780
F0000780
F0000780
F0000780
F0000780
F0000F80
F8000F00
FC001F00
7F007E00
3FFFFE00
1FFFFC00
0FFFF000
01FFC000
ENDCHAR
STARTCHAR Uhungarumlaut
ENCODING 368
SWIDTH 889 0
DWIDTH 28 0
BBX 25 29 2 0
BITMAP
0039C000
00318000
00630000
00630000
00000000
00000000
F0000780
F0000780
F0000780
F0000780
F0000780
F0000780
F0000780
F0000780
F0000780
F0000780
F0000780
F0000780
F0000780
F0000780
F0000780
F0000F80
F8000F00
FC001F00
7F007E00
3FFFFE00
1FFFFC00
0FFFF000
01FFC000
ENDCHAR
STARTCHAR uhungarumlaut
ENCODING 369
SWIDTH 889 0
DWIDTH 28 0
BBX 25 29 2 0
BITMAP
0039C000
00318000
00630000
00630000
00000000
00000000
F0000780
F0000780
F0000780
F0000780
F0000780
F0000780
F0000780
F0000780
F0000780
F0000780
F0000780
F0000780
F0000780
F0000780
F0000780
F0000F80
F8000F00
FC001F00
7F007E00
3FFFFE00
1FFFFC00
0FFFF000
01FFC000
ENDCHAR
STARTCHAR Uogonek
ENCODING 370
SWIDTH 889 0
DWIDTH 28 0
BBX 25 29 2 -6
BITMAP
F0000780
F0000780
F0000780
F0000780
F0000780
F0000780
F0000780
F0000780
F0000780
F0000780
F0000780
F0000780
F0000780
F0000780
F0000780
F0000F80
F8000F00
FC001F00
7F007E00
3FFFFE00
1FFFFC00
0FFFF000
01FF0000
000C0000
00100000
00700000
007E0000
007E0000
003E0000
ENDCHAR
STARTCHAR uogonek
ENCODING 371
SWIDTH 889 0
DWIDTH 28 0
BBX 25 29 2 -6
BITMAP
F0000780
F0000780
F0000780
F0000780
F0000780
F0000780
F0000780
F0000780
F0000780
F0000780
F0000780
F0000780
F0000780
F0000780
F0000780
F0000F80
F8000F00
FC001F00
7F007E00
3FFFFE00
1FFFFC00
0FFFF000
01FF0000
000C0000
00100000
00700000
007E0000
007E0000
003E0000
ENDCHAR
STARTCHAR Wcircumflex
ENCODING 372
SWIDTH 1268 0
DWIDTH 41 0
BBX 40 29 0 0
BITMAP
00003C0000
0000360000
0000660000
0000E30000
0000008000
0000000000
FC0F80001F
7C07C0001E
3E03C0003E
3E03E0003C
1F01E0007C
1F01F00078
0F80F000F8
0780F801F0
07C07801E0
03C07C03E0
03E03E03C0
01F03E07C0
01F03F0780
00F87F0F80
00F8FF8F00
007CFF9F00
003DF7DE00
003FE3FC00
001FC3FC00
001FC1F800
000F81F800
000F80F000
0007006000
ENDCHAR
STARTCHAR wcircumflex
ENCODING 373
SWIDTH 1268 0
DWIDTH 41 0
BBX 40 29 0 0
BITMAP
00003C0000
0000360000
0000660000
0000E30000
0000008000
0000000000
FC0F80001F
7C07C0001E
3E03C0003E
3E03E0003C
1F01E0007C
1F01F00078
0F80F000F8
0780F801F0
07C07801E0
03C07C03E0
03E03E03C0
01F03E07C0
01F03F0780
00F87F0F80
00F8FF8F00
007CFF9F00
003DF7DE00
003FE3FC00
001FC3FC00
001FC1F800
000F81F800
000F80F000
0007006000
ENDCHAR
STARTCHAR Ycircumflex
ENCODING 374
SWIDTH 926 0
DWIDTH 30 0
BBX 29 29 0 0
BITMAP
00078000
000F8000
000CC000
00186000
00000000
00000000
FC0000F8
3E0001F0
1F0003E0
1F8007C0
0FC00F80
07E01F00
03E01F00
01F03E00
00F87C00
007CF800
007FF000
003FE000
001FC000
000FC000
00078000
00078000
00078000
00078000
00078000
00078000
00078000
00078000
00078000
ENDCHAR
STARTCHAR ycircumflex
ENCODING 375
SWIDTH 926 0
DWIDTH 30 0
BBX 29 29 0 0
BITMAP
00078000
000F8000
000CC000
00186000
00000000
00000000
FC0000F8
3E0001F0
1F0003E0
1F8007C0
0FC00F80
07E01F00
03E01F00
01F03E00
00F87C00
007CF800
007FF000
003FE000
001FC000
000FC000
00078000
00078000
00078000
00078000
00078000
00078000
00078000
00078000
00078000
ENDCHAR
STARTCHAR Ydieresis
ENCODING 376
SWIDTH 926 0
DWIDTH 30 0
BBX 29 28 0 0
BITMAP
00186000
003CF000
00186000
00000000
00000000
FC0000F8
3E0001F0
1F0003E0
1F8007C0
0FC00F80
07E01F00
03E01F00
01F03E00
00F87C00
007CF800
007FF000
003FE000
001FC000
000FC000
00078000
00078000
00078000
00078000
00078000
00078000
00078000
00078000
00078000
ENDCHAR
STARTCHAR Zacute
ENCODING 377
SWIDTH 802 0
DWIDTH 26 0
BBX 23 29 1 0
BITMAP
000080
000780
003F80
007C00
008000
000000
7FFFFE
7FFFFE
7FFFFE
7FFFFE
0000FC
0001F8
0003F0
0007E0
000FC0
001F80
003F00
007E00
00FC00
01F000
03E000
07C000
0F8000
1F0000
3E0000
7FFFFE
FFFFFE
FFFFFE
7FFFFE
ENDCHAR
STARTCHAR zacute
ENCODING 378
SWIDTH 802 0
DWIDTH 26 0
BBX 23 29 1 0
BITMAP
000080
000780
003F80
007C00
008000
000000
7FFFFE
7FFFFE
7FFFFE
7FFFFE
0000FC
0001F8
0003F0
0007E0
000FC0
001F80
003F00
007E00
00FC00
01F000
03E000
07C000
0F8000
1F0000
3E0000
7FFFFE
FFFFFE
FFFFFE
7FFFFE
ENDCHAR
STARTCHAR Zdotaccent
ENCODING 379
SWIDTH 802 0
DWIDTH 26 0
BBX 23 28 1 0
BITMAP
001800
003800
001800
000000
000000
7FFFFE
7FFFFE
7FFFFE
7FFFFE
0000FC
0001F8
0003F0
0007E0
000FC0
001F80
003F00
007E00
00FC00
01F000
03E000
07C000
0F8000
1F0000
3E0000
7FFFFE
FFFFFE
FFFFFE
7FFFFE
ENDCHAR
STARTCHAR zdotaccent
ENCODING 380
SWIDTH 802 0
DWIDTH 26 0
BBX 23 28 1 0
BITMAP
001800
003800
001800
000000
000000
7FFFFE
7FFFFE
7FFFFE
7FFFFE
0000FC
0001F8
0003F0
0007E0
000FC0
001F80
003F00
007E00
00FC00
01F000
03E000
07C000
0F8000
1F0000
3E0000
7FFFFE
FFFFFE
FFFFFE
7FFFFE
ENDCHAR
STARTCHAR Zcaron
ENCODING 381
SWIDTH 802 0
DWIDTH 26 0
BBX 23 29 1 0
BITMAP
01C700
00C600
006C00
003800
000000
000000
7FFFFE
7FFFFE
7FFFFE
7FFFFE
0000FC
0001F8
0003F0
0007E0
000FC0
001F80
003F00
007E00
00FC00
01F000
03E000
07C000
0F8000
1F0000
3E0000
7FFFFE
FFFFFE
FFFFFE
7FFFFE
ENDCHAR
STARTCHAR zcaron
ENCODING 382
SWIDTH 802 0
DWIDTH 26 0
BBX 23 29 1 0
BITMAP
01C700
00C600
006C00
003800
000000
000000
7FFFFE
7FFFFE
7FFFFE
7FFFFE
0000FC
0001F8
0003F0
0007E0
000FC0
001F80
003F00
007E00
00FC00
01F000
03E000
07C000
0F8000
1F0000
3E0000
7FFFFE
FFFFFE
FFFFFE
7FFFFE
ENDCHAR
STARTCHAR Scommaaccent
ENCODING 536
SWIDTH 880 0
DWIDTH 28 0
BBX 25 29 2 -6
BITMAP
0FFFFF00
3FFFFF00
7FFFFF00
FFFFFF00
F8000000
F0000000
F0000000
F0000000
F0000000
F8000000
7FFFF800
3FFFFE00
0FFFFF00
00000F00
00000700
00000780
00000780
00000F80
00001F00
FFFFFF00
FFFFFE00
FFFFFC00
FFFFF800
00000000
003C0000
001C0000
00180000
00180000
00080000
ENDCHAR
STARTCHAR scommaaccent
ENCODING 537
SWIDTH 880 0
DWIDTH 28 0
BBX 25 29 2 -6
BITMAP
0FFFFF00
3FFFFF00
7FFFFF00
FFFFFF00
F8000000
F0000000
F0000000
F0000000
F0000000
F8000000
7FFFF800
3FFFFE00
0FFFFF00
00000F00
00000700
00000780
00000780
00000F80
00001F00
FFFFFF00
FFFFFE00
FFFFFC00
FFFFF800
00000000
003C0000
001C0000
00180000
00180000
00080000
ENDCHAR
STARTCHAR uni021A
ENCODING 538
SWIDTH 720 0
DWIDTH 23 0
BBX 21 29 1 -6
BITMAP
FFFFF8
FFFFF8
FFFFF8
FFFFF8
00F800
00F800
00F800
00F800
00F800
00F800
00F800
00F800
00F800
00F800
00F800
00F800
00F800
00F800
00F800
00F800
00F800
00F800
00F800
000000
00F800
007000
007000
002000
002000
ENDCHAR
STARTCHAR uni021B
ENCODING 539
SWIDTH 720 0
DWIDTH 23 0
BBX 21 29 1 -6
BITMAP
FFFFF8
FFFFF8
FFFFF8
FFFFF8
00F800
00F800
00F800
00F800
00F800
00F800
00F800
00F800
00F800
00F800
00F800
00F800
00F800
00F800
00F800
00F800
00F800
00F800
00F800
000000
00F800
007000
007000
002000
002000
ENDCHAR
ENDFONT
